<svg width="81" height="76" viewBox="0 0 81 76" fill="none" xmlns="http://www.w3.org/2000/svg">
<path d="M15.9271 41.8059H24.1389V45.8938H15.9271V41.8059Z" fill="#1A1A1A"/>
<path d="M37.1141 6.18243L32.3429 10.7084H47.2324L52.1201 6.18243H37.1141Z" fill="#1A1A1A"/>
<path d="M24.5695 35.82H9.55778L4.6702 40.3459H19.6819L24.5695 35.82Z" fill="#1A1A1A"/>
<path d="M69.365 6.18243H54.3533L49.4657 10.7084H64.4773L69.365 6.18243Z" fill="#1A1A1A"/>
<path d="M23.0878 64.7684C22.8739 64.7681 22.6688 64.6893 22.5177 64.5494L21.5495 63.6371L20.5947 64.5468C20.521 64.6169 20.4328 64.6726 20.3354 64.7106C20.238 64.7486 20.1334 64.7682 20.0276 64.7682C19.9219 64.7682 19.8172 64.7486 19.7198 64.7106C19.6224 64.6726 19.5343 64.6169 19.4605 64.5468L18.5047 63.6371L17.5343 64.5494C17.4587 64.6195 17.3687 64.675 17.2697 64.7126C17.1706 64.7502 17.0644 64.7692 16.9573 64.7684C16.8503 64.7676 16.7444 64.7471 16.646 64.708C16.5476 64.669 16.4587 64.6122 16.3843 64.5409L16.243 64.4209V69.8374H23.823V64.4209L23.677 64.5409C23.5205 64.6853 23.3088 64.767 23.0878 64.7684Z" fill="#1A1A1A"/>
<path d="M43.5629 12.1683H51.6167V16.1103H43.5629V12.1683Z" fill="#1A1A1A"/>
<path d="M70.409 7.15507L65.6714 11.6738V39.1865L70.409 34.6678V7.15507Z" fill="#1A1A1A"/>
<path d="M29.5081 35.82H26.8026L21.9151 40.3459H29.5081V35.82Z" fill="#1A1A1A"/>
<path d="M60.3022 46.5677C60.3022 46.971 59.9625 47.3538 59.5265 47.3538H49.8106C49.3746 47.3538 49.09 46.971 49.09 46.5677V41.8059H38.1936V69.8374H49.4058V62.5919C49.3992 62.4481 49.4401 62.3059 49.523 62.1842C49.6059 62.0625 49.727 61.967 49.8701 61.9105C50.0111 61.8558 50.1669 61.843 50.3161 61.8738C50.4653 61.9046 50.6004 61.9775 50.7028 62.0825L51.6247 62.9731L52.5865 62.0533C52.7321 61.906 52.9346 61.8176 53.1502 61.8073H53.1523C53.3686 61.8176 53.5716 61.9069 53.7169 62.0555L54.6685 62.9899L55.6201 62.0831C55.6934 62.0132 55.7811 61.9576 55.8781 61.9195C55.975 61.8815 56.0792 61.8617 56.1845 61.8614C56.2899 61.8604 56.3944 61.8793 56.4916 61.917C56.5888 61.9546 56.6767 62.0103 56.7498 62.0804L57.7111 62.9869L58.6318 62.0891C58.7399 61.9831 58.88 61.9097 59.0338 61.8785C59.1877 61.8472 59.3482 61.8595 59.4944 61.9138C59.6406 61.968 59.7657 62.0617 59.8534 62.1827C59.9412 62.3036 59.9875 62.4462 59.9864 62.5919V69.8374H71.0407V41.8059H60.3022V46.5677Z" fill="#1A1A1A"/>
<path d="M57.7281 64.7684C57.6222 64.7683 57.5174 64.7489 57.4195 64.7113C57.3217 64.6738 57.2329 64.6187 57.1581 64.5494L56.1902 63.6371L55.2357 64.5468C55.1622 64.6168 55.0743 64.6726 54.9771 64.7106C54.8799 64.7487 54.7754 64.7683 54.6698 64.7683C54.5643 64.7683 54.4598 64.7487 54.3626 64.7106C54.2654 64.6726 54.1774 64.6168 54.1039 64.5468L53.1514 63.6371L52.1873 64.5494C52.1143 64.6189 52.0269 64.6742 51.9304 64.7118C51.8338 64.7494 51.73 64.7687 51.6252 64.7684C51.5216 64.7675 51.4193 64.7469 51.3247 64.7078C51.2301 64.6686 51.1453 64.6119 51.0755 64.5411L50.985 64.4209V69.8374H58.4072V64.4209L58.2892 64.5409C58.2172 64.612 58.1304 64.6688 58.0339 64.7079C57.9375 64.747 57.8335 64.7676 57.7281 64.7684Z" fill="#1A1A1A"/>
<path d="M72.6199 68.8647L77.5153 64.3461V36.8334L72.6199 41.352V68.8647Z" fill="#1A1A1A"/>
<path d="M51.3009 34.7429L51.1913 34.8628C51.1209 34.9337 51.0355 34.9905 50.9405 35.0296C50.8454 35.0687 50.7426 35.0894 50.6386 35.0903C50.4249 35.0887 50.2203 35.0102 50.0683 34.8713L49.1003 33.9589L48.1456 34.8685C48.072 34.9386 47.984 34.9944 47.8866 35.0325C47.7893 35.0705 47.6847 35.0902 47.579 35.0902C47.4733 35.0902 47.3686 35.0705 47.2713 35.0325C47.174 34.9944 47.0859 34.9386 47.0123 34.8685L46.0575 33.9588L45.0895 34.8711C45.016 34.9404 44.9283 34.9954 44.8316 35.033C44.7349 35.0705 44.6311 35.0899 44.5262 35.09H44.5197C44.4171 35.0894 44.3159 35.0689 44.2225 35.0298C44.1291 34.9906 44.0457 34.9336 43.9777 34.8627L43.879 34.7429V40.3459H51.3012L51.3009 34.7429Z" fill="#1A1A1A"/>
<path d="M71.4892 35.82L66.6016 40.3459H71.567L76.4546 35.82H71.4892Z" fill="#1A1A1A"/>
<path d="M64.0923 12.1683H53.1959V16.8896C53.1983 16.9814 53.1801 17.0727 53.1425 17.1576C53.1049 17.2426 53.0487 17.3195 52.9774 17.3834C52.9061 17.4473 52.8213 17.4969 52.7283 17.5291C52.6353 17.5612 52.5361 17.5753 52.4369 17.5703H42.7208C42.6228 17.5749 42.5248 17.5604 42.4331 17.5279C42.3415 17.4953 42.2583 17.4454 42.1888 17.3812C42.1193 17.3171 42.0652 17.2402 42.0299 17.1555C41.9945 17.0709 41.9788 16.9803 41.9837 16.8896V12.1683H31.0873V40.3459H42.2995V32.9137C42.2946 32.7696 42.3371 32.6275 42.4215 32.5063C42.5059 32.3851 42.6282 32.2904 42.7721 32.2349C42.9148 32.1806 43.0721 32.1684 43.2225 32.1997C43.373 32.2311 43.5093 32.3045 43.6131 32.41L44.5352 33.3062L45.4969 32.3963C45.57 32.3261 45.6575 32.27 45.7543 32.2312C45.8511 32.1925 45.9552 32.1719 46.0606 32.1706H46.0627C46.1685 32.172 46.2729 32.1929 46.3698 32.2321C46.4667 32.2714 46.5542 32.3281 46.6271 32.399L47.5787 33.3126L48.5302 32.4058C48.6035 32.336 48.6912 32.2805 48.788 32.2424C48.8849 32.2044 48.989 32.1846 49.0943 32.1843C49.1996 32.1837 49.3039 32.2027 49.401 32.2404C49.4981 32.278 49.586 32.3334 49.6593 32.4033L50.6193 33.3098L51.5379 32.4118C51.6449 32.3056 51.7842 32.232 51.9375 32.2006C52.0907 32.1692 52.2507 32.1816 52.3962 32.236C52.5417 32.2905 52.6658 32.3846 52.7523 32.5057C52.8387 32.6268 52.8833 32.7694 52.8802 32.9145V40.3459H64.0924L64.0923 12.1683Z" fill="#1A1A1A"/>
<path d="M50.6692 41.8059H58.723V45.8938H50.6692V41.8059Z" fill="#1A1A1A"/>
<path d="M25.7181 46.5677C25.7109 46.7712 25.6215 46.9648 25.4675 47.1103C25.3135 47.2558 25.1062 47.3427 24.8863 47.3538H15.1704C14.9515 47.3424 14.7453 47.2551 14.5929 47.1094C14.4405 46.9638 14.353 46.7704 14.3479 46.5677V41.8059H3.60947V69.8374H14.6638V62.5919C14.6681 62.4438 14.7195 62.3002 14.8114 62.1789C14.9034 62.0576 15.0319 61.964 15.181 61.9097C15.33 61.8554 15.4931 61.8428 15.6498 61.8736C15.8065 61.9043 15.95 61.9769 16.0625 62.0825L16.9845 62.9731L17.9463 62.0533C18.0919 61.906 18.2944 61.8176 18.51 61.8073H18.5121C18.7284 61.8176 18.9315 61.9069 19.0768 62.0555L20.0286 62.9899L20.9805 62.0835C21.054 62.0136 21.1419 61.958 21.2389 61.92C21.336 61.8819 21.4403 61.8621 21.5457 61.8619C21.6514 61.861 21.7561 61.8799 21.8536 61.9176C21.9511 61.9552 22.0394 62.0108 22.1129 62.0809L23.0777 62.9874L24.0054 62.0895C24.1171 61.984 24.2598 61.9112 24.4159 61.88C24.5719 61.8489 24.7345 61.8608 24.8832 61.9143C25.032 61.9678 25.1605 62.0606 25.2528 62.181C25.3451 62.3015 25.397 62.4443 25.4022 62.5919V69.8374H36.6144V41.8059H25.7181V46.5677ZM7.87327 58.1661C7.87327 58.3597 7.79008 58.5454 7.642 58.6823C7.49392 58.8192 7.29309 58.8961 7.08367 58.8961C6.87426 58.8961 6.67343 58.8192 6.52535 58.6823C6.37727 58.5454 6.29408 58.3597 6.29408 58.1661V48.5302C6.29408 48.3366 6.37727 48.151 6.52535 48.0141C6.67343 47.8772 6.87426 47.8003 7.08367 47.8003C7.29309 47.8003 7.49392 47.8772 7.642 48.0141C7.79008 48.151 7.87327 48.3366 7.87327 48.5302V58.1661ZM7.87327 45.7563C7.87327 45.9499 7.79008 46.1356 7.642 46.2725C7.49392 46.4094 7.29309 46.4863 7.08367 46.4863C6.87426 46.4863 6.67343 46.4094 6.52535 46.2725C6.37727 46.1356 6.29408 45.9499 6.29408 45.7563V44.8365C6.29408 44.6429 6.37727 44.4572 6.52535 44.3203C6.67343 44.1834 6.87426 44.1065 7.08367 44.1065C7.29309 44.1065 7.49392 44.1834 7.642 44.3203C7.79008 44.4572 7.87327 44.6429 7.87327 44.8365V45.7563Z" fill="#1A1A1A"/>
</svg>
