<svg width="459" height="386" viewBox="0 0 459 386" fill="none" xmlns="http://www.w3.org/2000/svg">
<path d="M0 49C0 21.938 21.938 0 49 0H410C437.062 0 459 21.938 459 49V337C459 364.062 437.062 386 410 386H49C21.9381 386 0 364.062 0 337V49Z" fill="white" fill-opacity="0.24"/>
<path d="M325 323.469H355V345.156H325V323.469Z" fill="#AAB2BD"/>
<path d="M215 323.469H245V345.156H215V323.469Z" fill="#AAB2BD"/>
<path d="M105 323.469H135V345.156H105V323.469Z" fill="#AAB2BD"/>
<path d="M380 301.781V312.625C380 318.589 375.5 323.469 370 323.469H355H325H310C304.5 323.469 300 318.589 300 312.625V301.781H380Z" fill="#CCD1D9"/>
<path d="M270 301.781V312.625C270 318.589 265.5 323.469 260 323.469H245H215H200C194.5 323.469 190 318.589 190 312.625V301.781H270Z" fill="#CCD1D9"/>
<path d="M160 301.781V312.625C160 318.589 155.5 323.469 150 323.469H135H105H90C84.5 323.469 80 318.589 80 312.625V301.781H160Z" fill="#CCD1D9"/>
<path d="M380 269.25V301.781H300V280.094V269.25C300 263.286 304.5 258.406 310 258.406H340H370C375.5 258.406 380 263.286 380 269.25Z" fill="#69D6F4"/>
<path d="M270 280.094V301.781H190V280.094V269.25C190 263.286 194.5 258.406 200 258.406H230H260C265.5 258.406 270 263.286 270 269.25V280.094Z" fill="#69D6F4"/>
<path d="M160 280.094V301.781H80V269.25C80 263.286 84.5 258.406 90 258.406H120H150C155.5 258.406 160 263.286 160 269.25V280.094Z" fill="#69D6F4"/>
<path d="M268.55 186.404C275.5 180.44 280 171.168 280 160.812C280 142.866 266.55 128.281 250 128.281C246.45 128.281 243 128.986 239.85 130.233C238.95 113.968 232.1 99.4369 221.6 89.2438C229 49.6641 261.3 19.8438 300 19.8438C344.2 19.8438 380 58.6644 380 106.594C380 150.89 349.4 187.434 309.9 192.693C306.65 193.127 303.35 193.344 300 193.344C288.85 193.344 278.2 190.85 268.55 186.404Z" fill="#FD7F2F"/>
<path d="M280 160.812C280 171.168 275.5 180.44 268.55 186.404C263.45 190.741 257 193.344 250 193.344H230H150H130C113.45 193.344 100 178.759 100 160.812C100 142.866 113.45 128.281 130 128.281H130.25C132.8 97.9188 156.3 74.0625 185 74.0625C199.05 74.0625 211.9 79.7555 221.6 89.2438C232.1 99.4369 238.95 113.968 239.85 130.233C243 128.986 246.45 128.281 250 128.281C266.55 128.281 280 142.866 280 160.812Z" fill="#E6E9ED"/>
<path d="M230 171.656C235.523 171.656 240 166.801 240 160.812C240 154.824 235.523 149.969 230 149.969C224.477 149.969 220 154.824 220 160.812C220 166.801 224.477 171.656 230 171.656Z" fill="#FD7F2F"/>
<path d="M190 171.656C195.523 171.656 200 166.801 200 160.812C200 154.824 195.523 149.969 190 149.969C184.477 149.969 180 154.824 180 160.812C180 166.801 184.477 171.656 190 171.656Z" fill="#FD7F2F"/>
<path d="M150 171.656C155.523 171.656 160 166.801 160 160.812C160 154.824 155.523 149.969 150 149.969C144.477 149.969 140 154.824 140 160.812C140 166.801 144.477 171.656 150 171.656Z" fill="#FD7F2F"/>
<path d="M370 252.984H345V220.453H315V197.242C354.73 189.527 385 151.861 385 106.594C385 55.7691 346.87 14.4219 300 14.4219C262.37 14.4219 229.33 41.5096 218.63 79.9235C209.01 72.8209 197.435 68.6406 185 68.6406C155.21 68.6406 130.49 91.7541 125.815 123.13C108.48 125.381 95 141.424 95 160.812C95 181.736 110.7 198.766 130 198.766H145V220.453H115V252.984H90C81.73 252.984 75 260.282 75 269.25V312.625C75 321.593 81.73 328.891 90 328.891H100V339.734H90V350.578H149.995V339.734H140V328.891H150C158.27 328.891 165 321.593 165 312.625V285.516H185V312.625C185 321.593 191.73 328.891 200 328.891H210V339.734H200V350.578H259.995V339.734H250V328.891H260C268.27 328.891 275 321.593 275 312.625V285.516H295V312.625C295 321.593 301.73 328.891 310 328.891H320V339.734H310V350.578H369.995V339.734H360V328.891H370C378.27 328.891 385 321.593 385 312.625V269.25C385 260.282 378.27 252.984 370 252.984ZM375 269.25V296.359H305V269.25C305 266.257 307.245 263.828 310 263.828H370C372.755 263.828 375 266.257 375 269.25ZM300 187.922C292.285 187.922 284.745 186.669 277.51 184.197C282.185 177.745 285 169.634 285 160.812C285 158.969 284.835 157.169 284.6 155.391H327.73C321.27 174.98 311.16 187.922 300 187.922ZM334.88 112.016C334.53 123.629 333.11 134.674 330.8 144.547H281.575C278.315 137.141 272.93 131.046 266.25 127.229C265.67 122.258 265.325 117.172 265.175 112.016H334.88ZM265.12 101.172C265.47 89.5582 266.89 78.5139 269.2 68.6406H330.795C333.105 78.5139 334.525 89.5582 334.875 101.172H265.12ZM325.49 182.983C330.68 175.788 335.03 166.359 338.32 155.391H359.86C351.175 167.883 339.285 177.55 325.49 182.983ZM366.28 144.547H341.11C343.26 134.571 344.555 123.613 344.87 112.016H374.745C374.03 123.7 371.085 134.722 366.28 144.547ZM366.28 68.6406C371.085 78.4651 374.03 89.4877 374.745 101.172H344.87C344.555 89.5745 343.26 78.6169 341.11 68.6406H366.28ZM359.86 57.7969H338.32C335.03 46.8284 330.68 37.3998 325.49 30.205C339.285 35.6377 351.175 45.3049 359.86 57.7969ZM300 25.2656C311.16 25.2656 321.27 38.2076 327.73 57.7969H272.27C278.73 38.2076 288.84 25.2656 300 25.2656ZM274.57 30.1128C269.355 37.3185 264.985 46.7796 261.68 57.7969H240.06C248.82 45.2127 260.815 35.5184 274.57 30.1128ZM233.72 68.6406H258.89C256.74 78.6169 255.445 89.5745 255.13 101.172H236.885C234.205 96.1458 230.92 91.5643 227.15 87.5142C228.63 80.8398 230.84 74.5179 233.72 68.6406ZM255.825 123.429C253.925 123.082 251.99 122.859 250 122.859C248.055 122.859 246.11 123.038 244.18 123.402C243.605 119.476 242.7 115.67 241.51 112.016H255.17C255.28 115.865 255.49 119.666 255.825 123.429ZM130 187.922C116.215 187.922 105 175.761 105 160.812C105 145.87 116.21 133.709 129.955 133.709H129.965L134.795 134.012L135.23 128.785C137.565 100.678 158.96 79.4844 185 79.4844C211.43 79.4844 233.325 101.915 234.845 130.548L235.23 137.797L241.53 135.341C244.31 134.256 247.16 133.703 250 133.703C263.785 133.703 275 145.864 275 160.812C275 175.761 263.785 187.922 250 187.922H130ZM90 263.828H150C152.755 263.828 155 266.257 155 269.25V296.359H85V269.25C85 266.257 87.245 263.828 90 263.828ZM130 339.734H110V328.891H130V339.734ZM150 318.047H90C87.245 318.047 85 315.618 85 312.625V307.203H155V312.625C155 315.618 152.755 318.047 150 318.047ZM165 274.672V269.25C165 260.282 158.27 252.984 150 252.984H125V231.297H155V198.766H225V252.984H200C191.73 252.984 185 260.282 185 269.25V274.672H165ZM265 296.359H195V269.25C195 266.257 197.245 263.828 200 263.828H260C262.755 263.828 265 266.257 265 269.25V296.359ZM240 339.734H220V328.891H240V339.734ZM260 318.047H200C197.245 318.047 195 315.618 195 312.625V307.203H265V312.625C265 315.618 262.755 318.047 260 318.047ZM275 274.672V269.25C275 260.282 268.27 252.984 260 252.984H235V198.766H250C257.125 198.766 263.755 196.434 269.29 192.449C279.08 196.575 289.38 198.766 300 198.766C301.69 198.766 303.335 198.598 305 198.489V231.297H335V252.984H310C301.73 252.984 295 260.282 295 269.25V274.672H275ZM350 339.734H330V328.891H350V339.734ZM370 318.047H310C307.245 318.047 305 315.618 305 312.625V307.203H375V312.625C375 315.618 372.755 318.047 370 318.047Z" fill="#1A1A1A"/>
<path d="M150 144.547C141.73 144.547 135 151.845 135 160.812C135 169.78 141.73 177.078 150 177.078C158.27 177.078 165 169.78 165 160.812C165 151.845 158.27 144.547 150 144.547ZM150 166.234C147.245 166.234 145 163.805 145 160.812C145 157.82 147.245 155.391 150 155.391C152.755 155.391 155 157.82 155 160.812C155 163.805 152.755 166.234 150 166.234Z" fill="#1A1A1A"/>
<path d="M190 144.547C181.73 144.547 175 151.845 175 160.812C175 169.78 181.73 177.078 190 177.078C198.27 177.078 205 169.78 205 160.812C205 151.845 198.27 144.547 190 144.547ZM190 166.234C187.245 166.234 185 163.805 185 160.812C185 157.82 187.245 155.391 190 155.391C192.755 155.391 195 157.82 195 160.812C195 163.805 192.755 166.234 190 166.234Z" fill="#1A1A1A"/>
<path d="M230 144.547C221.73 144.547 215 151.845 215 160.812C215 169.78 221.73 177.078 230 177.078C238.27 177.078 245 169.78 245 160.812C245 151.845 238.27 144.547 230 144.547ZM230 166.234C227.245 166.234 225 163.805 225 160.812C225 157.82 227.245 155.391 230 155.391C232.755 155.391 235 157.82 235 160.812C235 163.805 232.755 166.234 230 166.234Z" fill="#1A1A1A"/>
<path d="M185 90.3281V101.172C198.18 101.172 210.005 110.725 213.755 124.405L223.34 121.314C218.335 103.07 202.57 90.3281 185 90.3281Z" fill="#1A1A1A"/>
</svg>
