<svg width="81" height="75" viewBox="0 0 81 75" fill="none" xmlns="http://www.w3.org/2000/svg">
<g clip-path="url(#clip0)">
<path d="M61.5302 12.7634C61.5302 11.0097 60.7899 9.35875 59.4482 8.11835L52.749 1.92483C51.4259 0.701519 49.5478 0 47.6787 0H47.2715V13.1398H61.5303L61.5302 12.7634Z" fill="#1A1A1A"/>
<path d="M43.2786 45.1917C43.732 43.9192 44.5232 42.7344 45.5548 41.7742L61.5934 27.0061V17.5197H44.9487C43.6394 17.5197 42.6569 16.5402 42.6569 15.3298V0H7.12519C3.2066 0 0.0188599 2.94711 0.0188599 6.5699V68.1809C0.0188599 71.8037 3.2066 74.7508 7.12519 74.7508H54.4239C58.3424 74.7508 61.5934 71.8037 61.5934 68.1809V51.8363L58.9902 54.1846C57.9355 55.1512 56.7002 55.8548 55.3076 56.2847L47.7756 58.6095L46.6282 58.6673C44.7313 58.6673 42.9362 57.8139 41.8213 56.3853C40.7156 54.9632 40.4149 53.1197 41.0163 51.4537L43.2786 45.1917ZM11.8628 39.4194H35.4736C36.7829 39.4194 37.8424 40.3989 37.8424 41.6093C37.8424 42.8198 36.7829 43.7993 35.4736 43.7993H11.8628C10.5534 43.7993 9.49397 42.8198 9.49397 41.6093C9.49397 40.3989 10.5534 39.4194 11.8628 39.4194ZM9.49397 32.8495C9.49397 31.639 10.5534 30.6595 11.8628 30.6595H35.4736C36.7829 30.6595 37.8424 31.639 37.8424 32.8495C37.8424 34.06 36.7829 35.0395 35.4736 35.0395H11.8628C10.5534 35.0395 9.49397 34.06 9.49397 32.8495ZM9.49397 50.3692C9.49397 49.1587 10.5534 48.1792 11.8628 48.1792H35.4736C36.7829 48.1792 37.8424 49.1587 37.8424 50.3692C37.8424 51.5797 36.7829 52.5592 35.4736 52.5592H11.8628C10.5534 52.5592 9.49397 51.5797 9.49397 50.3692ZM44.9487 61.319C46.258 61.319 47.3175 62.2985 47.3175 63.509C47.3175 64.7195 46.2582 65.699 44.9487 65.699H30.7361C29.4268 65.699 28.3673 64.7195 28.3673 63.509C28.3673 62.2985 29.4268 61.319 30.7361 61.319H44.9487ZM11.8628 26.2796C10.5534 26.2796 9.49397 25.3001 9.49397 24.0896C9.49397 22.8792 10.5534 21.8997 11.8628 21.8997H44.9487C46.258 21.8997 47.3175 22.8792 47.3175 24.0896C47.3175 25.3001 46.258 26.2796 44.9487 26.2796H11.8628Z" fill="#1A1A1A"/>
<path d="M47.5699 47.1292L45.5091 52.8452C45.2002 53.7015 46.0815 54.516 47.0077 54.23L53.1867 52.3221L47.5699 47.1292Z" fill="#1A1A1A"/>
<path d="M65.9671 29.0984L50.3665 43.5213L57.0946 49.7416C60.6206 46.4811 67.4813 40.1374 72.6944 35.3179L65.9671 29.0984Z" fill="#1A1A1A"/>
<path d="M79.4811 22.8171C78.6484 22.0429 77.4223 21.6002 76.1222 21.6002C74.822 21.6002 73.5961 22.0429 72.7587 22.8193L69.3165 26.0016L76.0435 32.2208C77.928 30.4785 79.2305 29.2743 79.486 29.0382C81.3363 27.3249 81.3362 24.5343 79.4811 22.8171Z" fill="#1A1A1A"/>
<path d="M79.4858 29.0378C79.486 29.0378 79.486 29.0376 79.4861 29.0375C79.4918 29.0322 79.4943 29.0298 79.4989 29.0255C79.4943 29.03 79.4918 29.0323 79.4858 29.0378Z" fill="#1A1A1A"/>
<path d="M79.4989 29.0248C79.506 29.0179 79.5143 29.0098 79.5186 29.0056C79.5141 29.0099 79.506 29.0179 79.4989 29.0248Z" fill="#1A1A1A"/>
<path d="M79.5202 29.0056C79.5345 28.9921 79.5348 28.9918 79.5202 29.0056V29.0056Z" fill="#1A1A1A"/>
</g>
<defs>
<clipPath id="clip0">
<rect width="80.8543" height="74.7508" fill="white" transform="translate(0.0188599)"/>
</clipPath>
</defs>
</svg>
