<svg width="82" height="75" viewBox="0 0 82 75" fill="none" xmlns="http://www.w3.org/2000/svg">
<g clip-path="url(#clip0)">
<path d="M63.8895 48.3049C60.6875 52.3707 55.5006 55.0188 49.6566 55.0188H41.4566C38.624 55.0188 36.2117 53.3562 35.2983 51.0291C34.1708 50.7182 33.0651 50.3145 31.9862 49.8189C29.7013 48.7693 27.6266 47.3474 25.8002 45.5859C13.9535 47.992 5.0871 57.7511 5.0871 69.4263V70.9524C5.0871 73.0502 6.92663 74.7508 9.19571 74.7508H72.9413C75.2104 74.7508 77.05 73.0502 77.05 70.9524V69.4263C77.0498 60.4072 71.7583 52.5312 63.8895 48.3049Z" fill="#1A1A1A"/>
<path d="M21.4334 37.7566C23.1992 37.7566 24.7362 36.8518 25.5325 35.5165C25.5534 35.5694 25.5747 35.6219 25.5962 35.6744C25.6025 35.6902 25.6088 35.706 25.6152 35.7217C27.4832 40.2676 31.1179 44.0784 35.9108 45.7435C37.07 44.0407 39.1197 42.9082 41.4568 42.9082H49.6568C50.4747 42.9082 51.236 42.6949 51.9034 42.3499C53.0242 41.7705 54.0321 40.3006 54.5525 39.5215C55.3854 38.2747 56.0308 36.9541 56.603 35.5142C56.9245 36.0541 57.3667 36.5238 57.8965 36.8918V38.7507C57.8965 42.9511 54.2002 46.3686 49.6566 46.3686H41.4566C39.9065 46.3686 38.6497 47.5305 38.6497 48.9637C38.6497 50.397 39.9065 51.5587 41.4566 51.5587H49.6566C57.2957 51.5587 63.5105 45.8131 63.5105 38.7507V36.8918C64.6468 36.1026 65.3818 34.8465 65.3818 33.4316V25.6065V22.6059C65.3818 21.1618 64.6158 19.8841 63.4396 19.0985C62.5274 8.42628 52.8425 0 41.0684 0C29.2942 0 19.6095 8.42628 18.6973 19.0983C17.5211 19.8839 16.7551 21.1618 16.7551 22.6057V33.4313C16.7551 35.8268 18.86 37.7566 21.4334 37.7566ZM41.0684 5.19032C49.7845 5.19032 56.9736 11.3484 57.8139 19.2056C57.2622 19.6068 56.8104 20.1196 56.499 20.7079C53.8504 14.3193 47.9378 9.87131 41.0683 9.87131C34.0507 9.87131 28.2329 14.4721 25.6479 20.6824C25.6444 20.6909 25.641 20.6995 25.6375 20.7081C25.3262 20.1197 24.8743 19.607 24.3227 19.2058C25.1635 11.3484 32.3524 5.19032 41.0684 5.19032Z" fill="#1A1A1A"/>
</g>
<defs>
<clipPath id="clip0">
<rect width="80.8543" height="74.7508" fill="white" transform="translate(0.641479)"/>
</clipPath>
</defs>
</svg>
