<svg width="69" height="75" viewBox="0 0 69 75" fill="none" xmlns="http://www.w3.org/2000/svg">
<path d="M29.6998 54.9041C32.0653 54.9041 34.3658 54.6431 36.5723 54.1601L27.7188 47.2081L37.2845 40.649L48.9221 48.345C50.306 47.256 51.5861 46.0606 52.7331 44.7557H51.7532V42.9303L50.6224 41.5189V39.3245L49.756 38.5281L49.6814 37.6161L50.7814 35.6768L48.6966 32.278L48.9432 29.9711L47.0677 29.7926L46.3781 29.1522H45.1191L44.4751 29.6981H42.254L42.1777 29.8841H40.9447L38.1071 26.8963L38.1314 24.5685L38.6003 24.4095L38.7723 23.5185H38.1071L37.8362 22.5826L41.1167 20.3942V18.8433L42.7229 18.0184L43.3718 18.0769H44.6925L45.7259 17.5624L49.06 17.3239V18.9003L51.6883 19.5153L52.2058 19.8588H52.6877V19.0008L54.2063 18.8658L55.6518 19.8588H58.0189L58.1876 19.7178C57.9524 18.9783 57.6831 18.2524 57.3862 17.5414L55.8384 17.5639L55.0613 16.7795L54.912 15.5135L54.117 15.914L53.692 17.4619L52.5417 16.3325L52.4979 15.2645L51.3881 14.3826L50.9793 14.0076H49.6927L50.0983 15.0666L51.6445 15.863L51.9138 16.127L51.5796 16.283L51.5942 17.1214L50.8398 17.4109L50.1973 17.2819L49.7966 16.754L50.8446 16.8034L51.1269 16.4525L48.8069 15.0081L48.6333 14.3931L47.689 15.1791L46.7318 14.9991L45.2781 16.7435L44.9926 17.4259L44.063 17.5054L42.6855 17.5144L41.8646 17.1589L41.6229 15.6485L41.9198 14.9301L43.3183 14.6466L44.8433 14.9301L45.0267 14.1486L44.381 14.0076L44.6032 12.7897L46.1364 12.5692L47.2137 11.1653L48.3234 10.9943L49.3244 11.1308H49.6927L49.4932 9.81389L48.2731 10.2684L47.8448 9.28592L47.1374 9.19293L47.0044 8.51797L47.582 7.9375L48.9529 7.44253L49.305 6.86057C44.0711 2.59484 37.2067 0 29.6998 0C23.1842 0 17.157 1.95588 12.2524 5.25867L13.7515 5.24667L14.4183 5.59015L15.6741 5.83914L15.773 6.29661L17.7719 6.3641L17.5009 5.77164L15.7244 5.72664L16.143 5.36216L15.9969 4.92869H14.3908L16.143 3.71827H17.8205L18.609 4.7232L19.9199 4.7907L20.7068 4.08274L21.3006 4.35723L20.2136 5.33817C20.2136 5.33817 18.708 5.36216 18.7826 5.36216C18.8572 5.36216 18.9075 6.32061 18.9075 6.32061L20.7311 6.27411L20.9307 5.81814L22.1864 5.74914L22.3357 5.06668L21.5942 4.94969L21.8408 4.33473L22.4103 4.17574L24.3848 4.26873L23.2945 5.18068L23.4714 5.88863L24.6054 6.04612L24.5308 4.7682L25.6162 4.24324L27.5436 4.03775L30.3309 5.17918V6.15862L31.22 6.3641L30.7771 7.14255H29.5181L29.1465 8.032L26.2716 7.40204L28.5333 6.29061L27.6702 5.61265L25.72 5.84064L25.5497 6.00412L25.5448 6.00112L25.5124 6.03862L24.951 6.57859L24.0246 6.65058L24.0992 7.07806L24.4205 7.20105L24.4091 7.34354L23.6547 7.44253L23.5995 7.84601L22.8776 7.88201L22.7478 7.07806L21.4515 7.44253L18.8037 8.87495L19.1022 9.88288L19.842 10.3284L21.3217 10.5188V12.0727L22.0063 11.9708L22.6374 10.7558L24.2112 10.2939V8.42647L25.0857 7.81751L27.2029 8.27798L27.0536 9.51091H27.6231L29.1774 8.80295L29.252 10.4228L30.3844 11.0618L30.3342 12.0202L29.2488 12.3637L29.3218 12.6817L30.6311 13.2307L30.6051 13.8921L30.2254 13.9236C30.2254 13.9131 30.2238 13.9056 30.2238 13.9056L28.5722 13.4362L28.5025 12.9442H28.5008L28.9827 12.6397V12.1912L28.4635 12.0712L28.337 12.4822L27.4268 12.6127L27.3343 12.5827V12.6232L27.0196 12.6682L26.7632 12.1897L26.4647 12.0697H25.8174L25.5221 12.2917V12.7867L26.077 12.9577L26.6253 13.0297L26.502 13.0777L26.0023 13.5907L25.7817 13.3342L25.2998 13.2172L23.9841 14.3601L24.1544 14.4906L22.214 15.485L20.3872 17.2429L20.2639 18.0244L18.4305 19.1358L17.5236 19.9803L17.6242 21.6676L16.3652 21.1277L16.375 20.1392L12.8738 20.1407L11.0616 20.9897L10.2715 22.3336L9.96158 23.397L10.471 24.429L11.9004 24.588L14.1701 23.1841L14.3697 23.8815L13.6753 25.0919L15.4048 25.3649L15.5751 27.8338L17.9454 28.2042L19.4494 26.5978L21.2763 26.9413L21.9187 27.7663L23.6709 27.6733L23.7196 27.1948L24.6817 27.6283L25.7687 29.2017L27.6426 29.2257L28.3353 30.3461L28.4327 31.711L30.5078 32.4415L33.1214 32.4655L33.8888 33.6264L35.0472 33.9699L34.8234 34.9313L33.553 36.4222L33.1815 39.725L32.0361 40.5665L30.3325 40.5185L29.7631 41.4304L30.1849 43.1433L28.3337 45.3332L27.7415 46.3411L25.9764 47.1226L24.8147 47.2845L24.7677 47.7405L25.5821 47.9595L25.4832 48.447L24.7531 49.0994L25.196 49.6154L26.0737 49.6394L26.025 50.2664L25.7914 50.8813L25.7152 51.3823L27.0147 52.3947L26.8427 52.9212L25.0759 52.8897L23.3172 51.4723L21.9463 49.2464L22.1378 47.0986L21.0994 45.8176L21.5212 43.6533L20.9031 43.4928V38.7936C20.9031 38.7936 19.1769 37.5817 19.0779 37.5817C18.9789 37.5817 18.1645 37.3777 18.1645 37.3777L17.9909 36.4867L15.7471 33.8859L15.9694 32.9514L16.0424 31.42L17.595 30.4196L17.3727 28.7052L15.1046 28.5492L13.3281 26.6773L12.0707 26.3579L11.2563 26.2199L11.3536 25.5359L10.3169 25.3994V25.7849L7.7259 25.1924L6.6827 23.718L7.10777 23.0041L5.46589 20.7887L5.18359 19.1688H4.51678L4.74067 20.7422L5.87474 22.3621L5.75143 23.0041L4.78935 22.8676L3.60499 21.0002V18.8268L2.37196 18.2779V16.709C0.846897 20.0103 0 23.6415 0 27.4528C0.00324481 42.5913 13.3265 54.9041 29.6998 54.9041ZM43.3605 9.72539L43.633 9.33692L44.6097 9.15693L44.8531 10.2519L45.3722 11.0273L45.7178 11.3933L46.3489 11.6198L45.7584 12.2707L44.6097 12.3727H43.7482L43.8456 11.4248L44.5627 11.2883L44.5026 10.8428L43.8326 10.4543L43.3637 10.1589V9.72539H43.3605ZM41.7591 11.4383L42.3529 10.5608L43.1512 10.3899L43.7223 10.6163L43.6703 11.2103L42.4503 12.0068H41.7591V11.4383ZM25.6243 14.8146L25.0062 14.8626L25.0402 14.4651L25.3177 14.1456L25.6892 14.4156L25.6243 14.8146ZM27.7935 14.1126L27.37 14.1456L27.2857 14.5236L26.9595 14.7111L26.4388 14.7501C26.4209 14.6376 26.4079 14.5521 26.4079 14.5521H26.2067V14.1456H27.0553L27.2321 13.7286L27.5696 13.7211L27.9557 13.7961L27.7935 14.1126Z" fill="#1A1A1A"/>
<path d="M60.5288 52.8732L58.298 55.834L51.9252 53.2407L37.0104 43.4193L31.5007 47.0416L41.8468 55.2595L26.6107 58.3464L15.0186 52.5867L8.43652 55.411L24.5227 65.3389L44.4313 65.4934L50.2849 66.4593L47.8789 69.6526L55.8011 74.7508L68.451 57.9744L60.5288 52.8732ZM55.1489 71.364L51.5488 69.0452L61.1826 56.2615L64.786 58.5818L55.1489 71.364Z" fill="#1A1A1A"/>
</svg>
