<svg width="82" height="76" viewBox="0 0 82 76" fill="none" xmlns="http://www.w3.org/2000/svg">
<g clip-path="url(#clip0)">
<path d="M19.6181 53.4857H5.72125V66.6255H10.6167V62.3726C18.1963 70.4924 29.2576 75.3854 41.0604 75.3854C44.4656 75.3854 47.9262 74.9919 51.2018 74.2134L50.0174 69.9703C47.1351 70.6568 44.0677 71.0054 41.0604 71.0054C29.8547 71.0054 19.3334 66.0451 12.6651 57.8656H19.6181V53.4857Z" fill="#1A1A1A"/>
<path d="M41.0604 5.01445C52.2682 5.01445 62.7872 9.97502 69.4548 18.1542H62.414V22.5342H76.3108V9.39438H71.4154V13.6324C63.8357 5.52077 52.8546 0.634521 41.0604 0.634521C37.6554 0.634521 34.1058 1.02799 30.8303 1.80645L32.0147 6.04958C34.897 5.3631 38.0532 5.01445 41.0604 5.01445Z" fill="#1A1A1A"/>
<path d="M76.7846 38.0099C76.7846 48.3711 71.4187 57.9823 62.5719 64.1446V57.7196H57.8344V70.5674H72.047V66.0415H67.4764C76.2401 59.0351 81.5221 48.9087 81.5221 38.0099C81.5221 34.8662 81.0965 31.6966 80.2545 28.6661L75.6649 29.7568C76.4098 32.4301 76.7846 35.2339 76.7846 38.0099Z" fill="#1A1A1A"/>
<path d="M0.667847 38.0099C0.667847 41.1537 1.09344 44.3233 1.93546 47.3538L6.52505 46.263C5.78014 43.5898 5.4054 40.7859 5.4054 38.0099C5.4054 27.6477 10.7713 17.9198 19.6181 11.7565V18.3002H24.3556V5.45551H10.143V9.97837H14.7487C5.96207 16.9854 0.667847 27.0965 0.667847 38.0099H0.667847Z" fill="#1A1A1A"/>
<path d="M40.9371 18.3002C29.1818 18.3002 19.6181 27.142 19.6181 38.0099C19.6181 48.8779 29.1818 57.7196 40.9371 57.7196C52.6924 57.7196 62.2561 48.8779 62.2561 38.0099C62.2561 27.142 52.6924 18.3002 40.9371 18.3002ZM40.9371 35.82C44.8555 35.82 48.0434 38.7672 48.0434 42.3899C48.0434 45.2405 46.069 47.6718 43.3185 48.5791V53.3397H38.5809V48.587C35.8174 47.6862 33.8307 45.2491 33.8307 42.3899H38.5683C38.5683 43.5974 39.6309 44.5798 40.9371 44.5798C42.2432 44.5798 43.3059 43.5974 43.3059 42.3899C43.3059 41.1823 42.2432 40.1999 40.9371 40.1999C37.0186 40.1999 33.8307 37.2526 33.8307 33.63C33.8307 30.7708 35.8174 28.3336 38.5809 27.4328V22.6802H43.3185V27.4407C46.069 28.3481 48.0434 30.7794 48.0434 33.63H43.3059C43.3059 32.4225 42.2432 31.44 40.9371 31.44C39.6309 31.44 38.5683 32.4225 38.5683 33.63C38.5683 34.8376 39.6309 35.82 40.9371 35.82Z" fill="#1A1A1A"/>
</g>
<defs>
<clipPath id="clip0">
<rect width="80.8543" height="74.7508" fill="white" transform="translate(0.667847 0.634521)"/>
</clipPath>
</defs>
</svg>
