<svg width="583" height="487" viewBox="0 0 583 487" fill="none" xmlns="http://www.w3.org/2000/svg">
<g clip-path="url(#clip0)">
<path d="M78.0801 343.318C77.097 343.318 76.2999 342.461 76.2999 341.403C76.2999 340.346 77.097 339.488 78.0801 339.488C79.0633 339.488 79.8604 340.346 79.8604 341.403C79.8604 342.461 79.0633 343.318 78.0801 343.318Z" fill="#E6E6E6"/>
<path d="M49.2061 127.482C52.9325 135.096 58.4525 141.524 65.214 146.123C71.9754 150.722 79.7411 153.33 87.734 153.687C95.727 154.044 103.667 152.136 110.759 148.156C117.852 144.176 123.848 138.262 128.148 131.006C101.794 131.388 75.4403 130.212 49.2061 127.482Z" fill="#FD7F2F"/>
<path d="M100.184 84.6335C103.134 84.6335 105.525 82.0617 105.525 78.8892C105.525 75.7167 103.134 73.1448 100.184 73.1448C97.2348 73.1448 94.8438 75.7167 94.8438 78.8892C94.8438 82.0617 97.2348 84.6335 100.184 84.6335Z" fill="white"/>
<path d="M72.6983 106.966C77.6141 106.966 81.5992 102.68 81.5992 97.3926C81.5992 92.1051 77.6141 87.8187 72.6983 87.8187C67.7824 87.8187 63.7974 92.1051 63.7974 97.3926C63.7974 102.68 67.7824 106.966 72.6983 106.966Z" fill="white"/>
<path d="M72.9305 292.895C74.8969 292.895 76.4909 291.181 76.4909 289.066C76.4909 286.951 74.8969 285.236 72.9305 285.236C70.9642 285.236 69.3701 286.951 69.3701 289.066C69.3701 291.181 70.9642 292.895 72.9305 292.895Z" fill="#FD7F2F"/>
<path d="M90.1391 218.858C91.1223 218.858 91.9193 218 91.9193 216.943C91.9193 215.885 91.1223 215.028 90.1391 215.028C89.1559 215.028 88.3589 215.885 88.3589 216.943C88.3589 218 89.1559 218.858 90.1391 218.858Z" fill="#E6E6E6"/>
<path d="M235.52 47.8043C236.503 47.8043 237.3 46.947 237.3 45.8895C237.3 44.832 236.503 43.9747 235.52 43.9747C234.537 43.9747 233.74 44.832 233.74 45.8895C233.74 46.947 234.537 47.8043 235.52 47.8043Z" fill="#E6E6E6"/>
<path d="M88.0437 149.224C90.9932 149.224 93.3842 146.652 93.3842 143.48C93.3842 140.307 90.9932 137.735 88.0437 137.735C85.0942 137.735 82.7031 140.307 82.7031 143.48C82.7031 146.652 85.0942 149.224 88.0437 149.224Z" fill="white"/>
<path d="M331.963 238.128C345.081 238.128 355.716 226.69 355.716 212.579C355.716 198.468 345.081 187.03 331.963 187.03C318.844 187.03 308.209 198.468 308.209 212.579C308.209 226.69 318.844 238.128 331.963 238.128Z" fill="#1A1A1A"/>
<path d="M390.178 245.411L365.356 218.712C367.258 215.528 368.548 211.967 369.147 208.238C369.747 204.509 369.645 200.688 368.846 197.002C368.048 193.316 366.57 189.841 364.5 186.78C362.43 183.72 359.81 181.138 356.795 179.187C351.118 175.539 344.375 174.318 337.901 175.765C331.426 177.211 325.693 181.22 321.836 186.998C318.288 192.35 316.583 198.864 317.016 205.421C317.449 211.979 319.992 218.169 324.209 222.927C328.425 227.686 334.051 230.716 340.119 231.497C346.187 232.278 352.319 230.76 357.46 227.205L382.282 253.905C383.33 255.03 384.75 255.662 386.23 255.661C387.71 255.661 389.13 255.028 390.176 253.902C391.223 252.776 391.811 251.249 391.812 249.657C391.812 248.065 391.225 246.538 390.178 245.411ZM356.533 217.715C353.457 221.023 349.41 223.082 345.081 223.541C340.752 224 336.41 222.83 332.793 220.23C329.176 217.631 326.509 213.763 325.247 209.286C323.984 204.809 324.203 199.999 325.868 195.677C327.533 191.354 330.539 187.786 334.375 185.581C338.211 183.375 342.64 182.669 346.906 183.581C351.172 184.494 355.012 186.97 357.771 190.586C360.531 194.203 362.039 198.737 362.039 203.416C362.042 206.072 361.558 208.702 360.613 211.156C359.668 213.61 358.281 215.839 356.533 217.715Z" fill="#FD7F2F"/>
<path d="M570.115 284.795C633.596 360.306 449.575 469.129 300.881 469.129C152.188 469.129 49.3151 384.81 31.6479 284.795C-11.1892 42.2902 396.63 -111.844 300.881 100.46C161.317 409.919 520.122 225.328 570.115 284.795Z" fill="#FD7F2F"/>
<path d="M541.632 302.666C605.113 378.177 421.092 487 272.398 487C123.705 487 20.8322 402.681 3.16496 302.666C-39.6721 60.1615 368.147 -93.9729 272.398 118.332C132.834 427.79 491.639 243.199 541.632 302.666Z" fill="#1A1A1A"/>
<path d="M88.768 125.625C44.2236 123.516 9.68594 113.181 10.1397 102.096C10.4117 95.4509 23.0182 90.1071 44.7266 87.4358C44.8042 87.4257 44.883 87.4322 44.9584 87.455C45.0337 87.4777 45.1041 87.5163 45.1656 87.5684C45.227 87.6206 45.2782 87.6853 45.3163 87.7588C45.3544 87.8324 45.3786 87.9133 45.3875 87.9969C45.3964 88.0805 45.3898 88.1652 45.3681 88.2461C45.3465 88.327 45.3101 88.4025 45.2612 88.4682C45.2124 88.5339 45.1519 88.5886 45.0832 88.6291C45.0146 88.6696 44.9392 88.695 44.8614 88.704C24.4121 91.2207 11.5619 96.3738 11.3253 102.152C10.915 112.176 46.4032 122.341 88.8202 124.35C131.237 126.359 167.419 119.588 167.829 109.564C168.067 103.762 155.607 97.3957 135.313 92.9516C135.236 92.9351 135.163 92.9025 135.098 92.8556C135.034 92.8088 134.978 92.7487 134.935 92.6787C134.892 92.6088 134.862 92.5303 134.847 92.4479C134.832 92.3655 134.832 92.2807 134.848 92.1984C134.863 92.1161 134.894 92.0379 134.938 91.9683C134.981 91.8987 135.037 91.8391 135.103 91.7929C135.168 91.7467 135.241 91.7147 135.317 91.6989C135.394 91.683 135.473 91.6836 135.549 91.7006C157.09 96.4177 169.288 102.949 169.015 109.621C168.561 120.705 133.312 127.735 88.768 125.625Z" fill="#FD7F2F"/>
<path d="M133.075 117.58C135.318 110.345 135.964 102.647 134.963 95.0968C133.962 87.5464 131.34 80.3502 127.306 74.0779C123.272 67.8056 117.936 62.6293 111.72 58.9587C105.505 55.2882 98.58 53.224 91.4945 52.9297C84.409 52.6354 77.357 54.119 70.8968 57.2631C64.4365 60.4071 58.7452 65.1254 54.2734 71.0444C49.8016 76.9634 46.672 83.9206 45.1322 91.3656C43.5925 98.8105 43.6848 106.539 45.4021 113.939C74.3571 119.226 103.828 120.45 133.075 117.58Z" fill="#FD7F2F"/>
<path d="M207.037 97.5883C210.314 97.5883 212.971 94.7308 212.971 91.2059C212.971 87.681 210.314 84.8235 207.037 84.8235C203.76 84.8235 201.104 87.681 201.104 91.2059C201.104 94.7308 203.76 97.5883 207.037 97.5883Z" fill="#FD7F2F"/>
<path d="M322.156 424.377C324.122 424.377 325.716 422.662 325.716 420.547C325.716 418.432 324.122 416.718 322.156 416.718C320.189 416.718 318.595 418.432 318.595 420.547C318.595 422.662 320.189 424.377 322.156 424.377Z" fill="#FD7F2F"/>
<path d="M237.3 361.827C238.283 361.827 239.08 360.97 239.08 359.913C239.08 358.855 238.283 357.998 237.3 357.998C236.317 357.998 235.52 358.855 235.52 359.913C235.52 360.97 236.317 361.827 237.3 361.827Z" fill="#FD7F2F"/>
<path d="M421.252 400.123C422.235 400.123 423.032 399.266 423.032 398.208C423.032 397.15 422.235 396.293 421.252 396.293C420.269 396.293 419.472 397.15 419.472 398.208C419.472 399.266 420.269 400.123 421.252 400.123Z" fill="#E6E6E6"/>
<path d="M334.023 331.191C335.006 331.191 335.803 330.334 335.803 329.276C335.803 328.219 335.006 327.361 334.023 327.361C333.04 327.361 332.243 328.219 332.243 329.276C332.243 330.334 333.04 331.191 334.023 331.191Z" fill="#E6E6E6"/>
<path d="M221.279 142.267C222.262 142.267 223.059 141.409 223.059 140.352C223.059 139.294 222.262 138.437 221.279 138.437C220.296 138.437 219.499 139.294 219.499 140.352C219.499 141.409 220.296 142.267 221.279 142.267Z" fill="#E6E6E6"/>
<path d="M227.212 445.439C228.196 445.439 228.993 444.582 228.993 443.524C228.993 442.467 228.196 441.61 227.212 441.61C226.229 441.61 225.432 442.467 225.432 443.524C225.432 444.582 226.229 445.439 227.212 445.439Z" fill="#E6E6E6"/>
<path d="M139.391 405.229C140.374 405.229 141.171 404.372 141.171 403.314C141.171 402.257 140.374 401.399 139.391 401.399C138.407 401.399 137.61 402.257 137.61 403.314C137.61 404.372 138.407 405.229 139.391 405.229Z" fill="#FD7F2F"/>
<path d="M415.911 334.382C416.894 334.382 419.471 335.44 419.471 334.382C419.471 333.325 418.674 332.467 417.691 332.467C416.708 332.467 415.911 333.325 415.911 334.382Z" fill="#FD7F2F"/>
<path d="M208.818 231.623C208.818 248.779 184.157 288.757 176.95 300.074C176.732 300.416 176.44 300.696 176.1 300.889C175.759 301.083 175.38 301.184 174.994 301.184C174.609 301.184 174.23 301.083 173.889 300.889C173.548 300.696 173.256 300.416 173.039 300.074C165.832 288.757 141.171 248.779 141.171 231.623C141.171 226.845 142.046 222.114 143.746 217.7C145.445 213.287 147.937 209.276 151.078 205.898C154.218 202.519 157.947 199.84 162.051 198.011C166.154 196.183 170.553 195.242 174.994 195.242C179.436 195.242 183.834 196.183 187.938 198.011C192.042 199.84 195.77 202.519 198.911 205.898C202.052 209.276 204.543 213.287 206.243 217.7C207.943 222.114 208.818 226.845 208.818 231.623Z" fill="#FD7F2F"/>
<path d="M174.995 247.579C184.498 247.579 192.203 239.292 192.203 229.07C192.203 218.847 184.498 210.56 174.995 210.56C165.491 210.56 157.786 218.847 157.786 229.07C157.786 239.292 165.491 247.579 174.995 247.579Z" fill="#1A1A1A" fill-opacity="0.75"/>
<path d="M174.698 320.979C185.676 320.979 194.576 319.121 194.576 316.83C194.576 314.539 185.676 312.682 174.698 312.682C163.719 312.682 154.819 314.539 154.819 316.83C154.819 319.121 163.719 320.979 174.698 320.979Z" fill="#FD7F2F"/>
<path d="M484.714 202.915C484.564 203.229 484.437 203.555 484.334 203.89L455.98 212.364L450.87 206.986L442.316 214.219L450.501 224.686C451.163 225.532 452.061 226.124 453.062 226.374C454.062 226.623 455.111 226.517 456.051 226.071L486.68 211.528C487.719 212.304 488.953 212.721 490.218 212.724C491.483 212.727 492.719 212.316 493.761 211.545C494.803 210.774 495.603 209.68 496.053 208.409C496.503 207.137 496.583 205.748 496.281 204.427C495.979 203.106 495.311 201.914 494.365 201.012C493.418 200.109 492.239 199.537 490.983 199.373C489.728 199.209 488.455 199.46 487.335 200.093C486.216 200.725 485.301 201.71 484.714 202.915H484.714Z" fill="#FFB8B8"/>
<path d="M454.981 212.861L444.338 221.771C444.035 222.024 443.685 222.205 443.312 222.3C442.938 222.394 442.55 222.402 442.174 222.321C441.798 222.24 441.442 222.072 441.131 221.83C440.821 221.588 440.562 221.277 440.373 220.917L433.759 208.326C432.561 206.652 432.03 204.536 432.281 202.442C432.532 200.347 433.545 198.445 435.098 197.153C436.651 195.86 438.617 195.283 440.565 195.548C442.513 195.813 444.284 196.897 445.49 198.565L455.185 208.517C455.462 208.802 455.679 209.149 455.821 209.532C455.963 209.915 456.027 210.327 456.007 210.739C455.988 211.152 455.886 211.555 455.709 211.921C455.532 212.287 455.283 212.608 454.981 212.861V212.861Z" fill="#FD7F2F"/>
<path d="M487.433 198.7L498.225 203.923C498.677 204.142 499.03 204.545 499.206 205.043C499.382 205.542 499.366 206.095 499.163 206.581L497.885 209.636C498.035 209.709 498.153 209.843 498.211 210.009C498.27 210.175 498.265 210.359 498.198 210.522L497.686 211.744C497.618 211.905 497.493 212.031 497.339 212.094C497.185 212.157 497.014 212.152 496.863 212.08L496.352 213.302C496.502 213.375 496.619 213.509 496.678 213.675C496.736 213.841 496.731 214.025 496.664 214.188L496.153 215.409C496.085 215.571 495.96 215.697 495.806 215.76C495.651 215.823 495.48 215.818 495.329 215.746L488.429 232.242C488.226 232.728 487.851 233.108 487.388 233.297C486.925 233.486 486.41 233.469 485.959 233.25L475.166 228.028C474.714 227.809 474.361 227.406 474.185 226.908C474.01 226.409 474.025 225.856 474.228 225.37L484.962 199.709C485.165 199.223 485.54 198.843 486.003 198.654C486.467 198.465 486.981 198.482 487.433 198.7Z" fill="#3F3D56"/>
<path d="M477.126 226.402L485.784 230.596C486.218 230.805 486.711 230.821 487.155 230.64C487.6 230.459 487.96 230.097 488.157 229.631L492.156 220.064L493.545 216.748L497.164 208.092C497.357 207.626 497.371 207.097 497.203 206.62C497.035 206.143 496.699 205.757 496.267 205.546L493.545 204.226L487.603 201.352C487.169 201.144 486.676 201.129 486.232 201.311C485.789 201.493 485.43 201.857 485.236 202.323L481.735 210.691L477.749 220.218L476.229 223.856C476.035 224.322 476.021 224.851 476.189 225.329C476.357 225.806 476.694 226.192 477.126 226.402Z" fill="#F2F2F2"/>
<path d="M459.034 344.942L466.309 344.942L469.771 314.76L459.033 314.76L459.034 344.942Z" fill="#FFB8B8"/>
<path d="M457.179 342.387L471.505 342.387H471.506C472.705 342.387 473.892 342.641 475 343.134C476.108 343.628 477.114 344.351 477.962 345.263C478.81 346.175 479.482 347.258 479.941 348.449C480.4 349.641 480.636 350.918 480.636 352.207V352.526L457.179 352.527L457.179 342.387Z" fill="#2F2E41"/>
<path d="M478.023 343.027L485.298 343.027L488.759 312.845L478.021 312.845L478.023 343.027Z" fill="#FFB8B8"/>
<path d="M476.167 340.473L490.494 340.472H490.495C491.694 340.472 492.881 340.726 493.989 341.219C495.097 341.713 496.103 342.436 496.951 343.348C497.799 344.26 498.471 345.343 498.93 346.534C499.389 347.726 499.625 349.003 499.625 350.292V350.611L476.168 350.612L476.167 340.473Z" fill="#2F2E41"/>
<path d="M426.402 274.118C427.952 279.06 430.892 283.361 434.815 286.427C438.738 289.493 443.45 291.171 448.298 291.23L448.666 291.236C452.422 291.351 456.831 290.049 461.157 288.179C469.702 284.483 477.909 278.567 480.086 276.939L476.396 315.101L474.9 330.572C474.862 330.972 474.903 331.377 475.019 331.759C475.136 332.141 475.325 332.493 475.576 332.792C475.826 333.091 476.132 333.33 476.473 333.494C476.815 333.658 477.185 333.743 477.559 333.744H486.774C487.365 333.744 487.939 333.534 488.407 333.146C488.875 332.758 489.211 332.214 489.361 331.6L504.576 269.274C505.032 267.408 505.069 265.453 504.683 263.569C504.297 261.685 503.499 259.927 502.356 258.441C501.213 256.954 499.758 255.782 498.11 255.021C496.462 254.26 494.669 253.932 492.88 254.064L461.276 256.394L463.483 246.896L435.273 244.879L435.191 244.943C434.514 245.473 433.855 246.028 433.226 246.609C431.654 248.04 430.259 249.683 429.078 251.498C426.966 254.755 425.618 258.514 425.152 262.454C424.686 266.393 425.115 270.396 426.402 274.118Z" fill="#2F2E41"/>
<path d="M426.402 274.118C427.952 279.06 430.892 283.361 434.815 286.427C438.738 289.493 443.45 291.171 448.298 291.23C452.935 288.706 457.409 285.851 461.691 282.683L461.157 288.179L456.505 336.316C456.467 336.716 456.508 337.121 456.624 337.503C456.74 337.886 456.93 338.237 457.18 338.536C457.431 338.835 457.737 339.074 458.078 339.238C458.42 339.402 458.789 339.487 459.163 339.488H468.379C468.97 339.489 469.544 339.278 470.012 338.89C470.48 338.502 470.816 337.959 470.966 337.344L476.396 315.101L486.18 275.018C486.637 273.152 486.674 271.197 486.288 269.313C485.902 267.429 485.104 265.671 483.961 264.185C482.818 262.698 481.362 261.526 479.715 260.765C478.067 260.004 476.274 259.676 474.485 259.808L442.881 262.138L445.088 252.641L429.078 251.498C426.966 254.755 425.618 258.514 425.152 262.454C424.686 266.393 425.115 270.396 426.402 274.118Z" fill="#2F2E41"/>
<path d="M433.186 248.811L432.974 248.783L428.052 222.752C428.01 222.526 423.986 200.073 436.322 188.334L436.536 186.728C436.591 186.317 436.729 185.923 436.939 185.575C437.149 185.226 437.426 184.931 437.753 184.709C438.079 184.487 438.447 184.344 438.829 184.289C439.212 184.235 439.602 184.27 439.97 184.393L451.592 188.27C452.25 188.488 452.804 188.972 453.138 189.619C453.471 190.267 453.56 191.028 453.383 191.744L452.254 196.366C453.82 198.345 472.259 222.223 465.836 240.62L462.96 252.716L433.186 248.811Z" fill="#FD7F2F"/>
<path d="M481.441 228.494C481.163 228.683 480.9 228.894 480.653 229.127L452.231 220.92L450.373 213.494L439.587 215.046L441.689 228.535C441.859 229.625 442.353 230.626 443.097 231.388C443.84 232.15 444.794 232.632 445.814 232.762L479.063 236.987C479.591 238.223 480.457 239.257 481.545 239.951C482.632 240.645 483.891 240.967 485.153 240.873C486.415 240.779 487.62 240.274 488.609 239.425C489.597 238.577 490.322 237.424 490.687 236.121C491.052 234.819 491.039 233.427 490.651 232.133C490.263 230.838 489.517 229.701 488.514 228.873C487.51 228.045 486.296 227.565 485.032 227.497C483.769 227.43 482.516 227.778 481.441 228.494H481.441Z" fill="#FFB8B8"/>
<path d="M451.135 220.801L437.759 222.654C437.379 222.707 436.992 222.671 436.626 222.549C436.259 222.426 435.922 222.22 435.636 221.945C435.35 221.669 435.123 221.331 434.97 220.952C434.817 220.574 434.741 220.164 434.749 219.752L435.004 205.292C434.764 203.196 435.306 201.083 436.513 199.417C437.719 197.751 439.49 196.667 441.438 196.403C443.386 196.14 445.352 196.718 446.904 198.011C448.456 199.304 449.469 201.206 449.719 203.3L453.364 217.172C453.468 217.57 453.492 217.986 453.433 218.394C453.374 218.802 453.234 219.191 453.022 219.536C452.811 219.88 452.533 220.171 452.207 220.39C451.881 220.608 451.516 220.749 451.135 220.801Z" fill="#FD7F2F"/>
<path d="M447.37 180.86C455.419 180.86 461.945 173.841 461.945 165.184C461.945 156.526 455.419 149.507 447.37 149.507C439.321 149.507 432.796 156.526 432.796 165.184C432.796 173.841 439.321 180.86 447.37 180.86Z" fill="#FFB8B8"/>
<path d="M446.604 166.493L444.779 162.919C441.323 178.066 447.428 190.602 447.428 190.602L423.732 178.73L423.958 174.517L421.613 177.379L418.244 175.382L417.799 172.65L415.256 173.328L424.539 155.209C433.548 137.968 446.646 144.551 446.646 144.551C467.483 143.485 464.938 165.597 464.938 165.597L446.604 166.493Z" fill="#2F2E41"/>
<path d="M280.698 283.314C284.059 280.997 279.972 267.692 271.571 253.596C263.17 239.5 253.635 229.951 250.275 232.268C246.914 234.585 251.001 247.891 259.402 261.987C267.803 276.083 277.338 285.631 280.698 283.314Z" fill="#1A1A1A"/>
</g>
<defs>
<clipPath id="clip0">
<rect width="583" height="487" fill="white" transform="matrix(-1 0 0 1 583 0)"/>
</clipPath>
</defs>
</svg>
