<svg width="333" height="286" viewBox="0 0 333 286" fill="none" xmlns="http://www.w3.org/2000/svg">
<g clip-path="url(#clip0)">
<path d="M221.746 286L221.675 285.993L111.255 275.087L10.8457 285.004C8.2241 285.263 5.61311 284.404 3.58713 282.616C1.56116 280.829 0.286164 278.258 0.0426374 275.471C0.0142929 275.147 0.000109364 274.821 8.47356e-05 274.495V20.6074C-0.01005 17.9741 0.910204 15.4328 2.57865 13.4865C4.2471 11.5403 6.54209 10.331 9.00924 10.0982L111.255 0L111.325 0.00713183L221.746 10.9125L322.154 0.995827C324.776 0.7369 327.387 1.59581 329.413 3.3836C331.439 5.17139 332.714 7.74161 332.957 10.5289C332.986 10.8534 333 11.1787 333 11.505V265.392C333.01 268.026 332.09 270.567 330.421 272.513C328.753 274.46 326.458 275.669 323.991 275.902L221.746 286Z" fill="#1A1A1A"/>
<path d="M153.923 93.9259C132.548 77.3756 110.059 61.6818 87.0847 47.283L85.9316 46.5604V95.3954H155.821L153.923 93.9259ZM87.4589 93.7716V49.4061C109.315 63.1513 130.716 78.0657 151.124 93.7717L87.4589 93.7716ZM262.097 194.287C252.853 184.07 243.37 174.085 233.648 164.333C230.967 161.641 228.27 158.972 225.557 156.324C208.997 140.151 191.893 124.77 174.244 110.18L174.037 110.009H85.9316V195.663H263.342L262.097 194.287ZM87.4589 194.04V111.633H173.514C190.532 125.707 207.089 140.569 223.186 156.218C225.981 158.934 228.757 161.671 231.513 164.43C241.151 174.059 250.562 183.929 259.749 194.04H87.4589ZM262.097 194.287C252.853 184.07 243.37 174.085 233.648 164.333C230.967 161.641 228.27 158.972 225.557 156.324C208.997 140.151 191.893 124.77 174.244 110.18L174.037 110.009H85.9316V195.663H263.342L262.097 194.287ZM87.4589 194.04V111.633H173.514C190.532 125.707 207.089 140.569 223.186 156.218C225.981 158.934 228.757 161.671 231.513 164.43C241.151 174.059 250.562 183.929 259.749 194.04H87.4589ZM153.923 93.9259C132.548 77.3756 110.059 61.6818 87.0847 47.283L85.9316 46.5604V95.3954H155.821L153.923 93.9259ZM87.4589 93.7716V49.4061C109.315 63.1513 130.716 78.0657 151.124 93.7717L87.4589 93.7716ZM153.923 93.9259C132.548 77.3756 110.059 61.6818 87.0847 47.283L85.9316 46.5604V95.3954H155.821L153.923 93.9259ZM87.4589 93.7716V49.4061C109.315 63.1513 130.716 78.0657 151.124 93.7717L87.4589 93.7716ZM262.097 194.287C252.853 184.07 243.37 174.085 233.648 164.333C230.967 161.641 228.27 158.972 225.557 156.324C208.997 140.151 191.893 124.77 174.244 110.18L174.037 110.009H85.9316V195.663H263.342L262.097 194.287ZM87.4589 194.04V111.633H173.514C190.532 125.707 207.089 140.569 223.186 156.218C225.981 158.934 228.757 161.671 231.513 164.43C241.151 174.059 250.562 183.929 259.749 194.04H87.4589ZM10.3382 210.277V211.901H70.6587V235.446H10.3382V237.07H72.186V210.277H10.3382ZM85.9316 251.684V268.137L87.4589 267.986V253.307H322.662V251.684L85.9316 251.684ZM322.662 211.901V210.277H85.9316V237.07H322.662V235.446H87.4589V211.901L322.662 211.901ZM180.032 93.7716C150.732 69.7415 119.788 48.0651 87.4589 28.9222V12.4814L85.9316 12.6316V29.1996L87.1076 30.5744C119.305 49.6652 150.123 71.275 179.307 95.2249L179.513 95.3954H322.662V93.7716L180.032 93.7716ZM70.6586 93.7716H10.3382V95.3954H72.186V13.9875L70.6587 14.1377L70.6586 93.7716ZM322.662 110.009H196.817L198.463 111.446C213.957 125.001 229.17 139.377 244.102 154.574C246.225 156.733 248.34 158.911 250.448 161.106C260.94 172.005 271.228 183.261 281.311 194.872L282.57 195.664H322.662V194.04H282.666C272.693 182.543 262.503 171.38 252.097 160.549C250.017 158.382 247.928 156.229 245.832 154.091C231.223 139.189 216.303 125.036 201.07 111.633H322.662V110.009ZM10.3382 251.684V253.307H70.6587V269.643L72.186 269.492V251.684H10.3382ZM10.3382 110.009V111.633H70.6587V194.04H10.3382V195.664H72.186V110.009H10.3382ZM153.923 93.9259C132.548 77.3756 110.059 61.6818 87.0847 47.283L85.9316 46.5604V95.3954H155.821L153.923 93.9259ZM87.4589 93.7716V49.4061C109.315 63.1513 130.716 78.0657 151.124 93.7717L87.4589 93.7716ZM262.097 194.287C252.853 184.07 243.37 174.085 233.648 164.333C230.967 161.641 228.27 158.972 225.557 156.324C208.997 140.151 191.893 124.77 174.244 110.18L174.037 110.009H85.9316V195.663H263.342L262.097 194.287ZM87.4589 194.04V111.633H173.514C190.532 125.707 207.089 140.569 223.186 156.218C225.981 158.934 228.757 161.671 231.513 164.43C241.151 174.059 250.562 183.929 259.749 194.04H87.4589ZM153.923 93.9259C132.548 77.3756 110.059 61.6818 87.0847 47.283L85.9316 46.5604V95.3954H155.821L153.923 93.9259ZM87.4589 93.7716V49.4061C109.315 63.1513 130.716 78.0657 151.124 93.7717L87.4589 93.7716ZM262.097 194.287C252.853 184.07 243.37 174.085 233.648 164.333C230.967 161.641 228.27 158.972 225.557 156.324C208.997 140.151 191.893 124.77 174.244 110.18L174.037 110.009H85.9316V195.663H263.342L262.097 194.287ZM87.4589 194.04V111.633H173.514C190.532 125.707 207.089 140.569 223.186 156.218C225.981 158.934 228.757 161.671 231.513 164.43C241.151 174.059 250.562 183.929 259.749 194.04H87.4589Z" fill="#FD7E2E"/>
<path d="M170.554 106.855C170.554 127.416 135.536 173.222 135.536 173.222C135.536 173.222 100.517 127.416 100.517 106.855C100.517 96.9804 104.207 87.5106 110.774 80.5285C117.341 73.5464 126.248 69.6239 135.536 69.6239C144.823 69.6239 153.73 73.5464 160.298 80.5285C166.865 87.5106 170.554 96.9804 170.554 106.855Z" fill="#FD7E2E"/>
<path d="M151.545 105.236C151.545 108.602 150.606 111.893 148.847 114.691C147.088 117.49 144.588 119.672 141.662 120.96C138.737 122.248 135.518 122.585 132.413 121.929C129.308 121.272 126.455 119.651 124.217 117.271C121.978 114.89 120.453 111.858 119.835 108.556C119.218 105.255 119.535 101.833 120.746 98.7226C121.958 95.6127 124.01 92.9546 126.642 91.0844C129.275 89.2143 132.37 88.2161 135.536 88.2161C137.639 88.215 139.721 88.6546 141.664 89.5095C143.606 90.3645 145.371 91.6181 146.858 93.1987C148.345 94.7794 149.524 96.656 150.328 98.7214C151.132 100.787 151.546 103 151.545 105.236Z" fill="white"/>
<path d="M135.536 200.093C140.749 200.093 144.976 195.6 144.976 190.057C144.976 184.514 140.749 180.021 135.536 180.021C130.322 180.021 126.096 184.514 126.096 190.057C126.096 195.6 130.322 200.093 135.536 200.093Z" fill="#FD7F2F"/>
<path d="M225.982 64.0677C233.69 64.0677 239.938 57.4243 239.938 49.2293C239.938 41.0343 233.69 34.391 225.982 34.391C218.274 34.391 212.025 41.0343 212.025 49.2293C212.025 57.4243 218.274 64.0677 225.982 64.0677Z" fill="#FD7E2E"/>
<path d="M269.748 94.9557H201.281C201.195 94.9569 201.11 94.9497 201.025 94.9342L233.407 35.3008C233.605 34.9294 233.892 34.6205 234.238 34.4055C234.585 34.1905 234.979 34.0773 235.38 34.0773C235.782 34.0773 236.176 34.1905 236.523 34.4055C236.869 34.6205 237.156 34.9294 237.354 35.3008L259.086 75.3194L260.127 77.2343L269.748 94.9557Z" fill="white"/>
<path opacity="0.2" d="M269.748 94.9557H246.372L257.847 77.2341L258.673 75.9576L259.086 75.3193L260.127 77.2341L269.748 94.9557Z" fill="black"/>
<path d="M307.87 94.9557H248.652L260.127 77.2343L260.953 75.9577L275.907 52.8633C276.887 51.3497 279.245 51.2555 280.398 52.5779C280.475 52.6681 280.547 52.7634 280.613 52.8633L307.87 94.9557Z" fill="white"/>
<path d="M312.265 179.019C316.166 179.019 319.328 175.656 319.328 171.509C319.328 167.361 316.166 163.999 312.265 163.999C308.363 163.999 305.201 167.361 305.201 171.509C305.201 175.656 308.363 179.019 312.265 179.019Z" fill="white"/>
<path d="M312.946 194.129H311.499L312.159 170.378L312.946 194.129Z" fill="#CBCBCB"/>
<path d="M312.286 174.879L313.839 172.594L312.265 175.445L312.095 175.128L312.286 174.879Z" fill="#CBCBCB"/>
<path d="M312.116 177.186L310.563 174.902L312.137 177.752L312.307 177.435L312.116 177.186Z" fill="#CBCBCB"/>
<path d="M292.18 171.812C297.941 171.812 302.612 166.846 302.612 160.721C302.612 154.595 297.941 149.629 292.18 149.629C286.418 149.629 281.747 154.595 281.747 160.721C281.747 166.846 286.418 171.812 292.18 171.812Z" fill="#FD7E2E"/>
<path d="M293.185 194.129H291.048L292.023 159.05L293.185 194.129Z" fill="#CBCBCB"/>
<path d="M292.211 165.698L294.505 162.324L292.18 166.534L291.929 166.066L292.211 165.698Z" fill="#CBCBCB"/>
<path d="M291.96 169.106L289.666 165.732L291.991 169.941L292.243 169.474L291.96 169.106Z" fill="#CBCBCB"/>
<path d="M49.9699 179.019C53.8711 179.019 57.0336 175.656 57.0336 171.509C57.0336 167.361 53.8711 163.999 49.9699 163.999C46.0687 163.999 42.9062 167.361 42.9062 171.509C42.9062 175.656 46.0687 179.019 49.9699 179.019Z" fill="#FD7E2E"/>
<path d="M50.6511 194.129H49.2043L49.8637 170.378L50.6511 194.129Z" fill="#CBCBCB"/>
<path d="M49.9912 174.879L51.5446 172.594L49.9699 175.445L49.8 175.128L49.9912 174.879Z" fill="#CBCBCB"/>
<path d="M49.8212 177.186L48.2678 174.902L49.8425 177.752L50.0124 177.435L49.8212 177.186Z" fill="#CBCBCB"/>
<path d="M29.8848 171.812C35.6465 171.812 40.3173 166.846 40.3173 160.721C40.3173 154.595 35.6465 149.629 29.8848 149.629C24.1231 149.629 19.4523 154.595 19.4523 160.721C19.4523 166.846 24.1231 171.812 29.8848 171.812Z" fill="white"/>
<path d="M30.8903 194.129H28.7536L29.728 159.05L30.8903 194.129Z" fill="#CBCBCB"/>
<path d="M29.9164 165.698L32.2101 162.324L29.885 166.534L29.6338 166.066L29.9164 165.698Z" fill="#CBCBCB"/>
<path d="M29.6652 169.106L27.371 165.732L29.6966 169.941L29.9478 169.474L29.6652 169.106Z" fill="#CBCBCB"/>
</g>
<defs>
<clipPath id="clip0">
<rect width="333" height="286" fill="white"/>
</clipPath>
</defs>
</svg>
