<?xml version="1.0" encoding="UTF-8"?>
<svg xmlns="http://www.w3.org/2000/svg" xmlns:xlink="http://www.w3.org/1999/xlink" width="75pt" height="59pt" viewBox="0 0 75 59" version="1.1">
<g id="surface1">
<path style=" stroke:none;fill-rule:evenodd;fill:rgb(2.69928%,30.599976%,63.499451%);fill-opacity:1;" d="M 59.933594 35.867188 L 57.757813 37.46875 C 55.550781 38.96875 52.78125 40.289063 50.152344 41.125 C 40.140625 44.289063 28.242188 43.769531 18.953125 38.816406 C 18.125 38.375 17.371094 37.902344 16.621094 37.394531 L 14.515625 35.828125 L 10.566406 40.792969 C 10.953125 41.246094 12.476563 42.335938 13.0625 42.734375 C 25.710938 51.386719 45.164063 51.78125 58.613281 44.433594 C 61.039063 43.113281 61.839844 42.429688 63.894531 40.878906 C 63.777344 40.535156 60.207031 36.394531 59.933594 35.867188 "/>
<path style=" stroke:none;fill-rule:evenodd;fill:rgb(60.798645%,63.09967%,81.999207%);fill-opacity:1;" d="M 60.558594 35.257813 L 59.933594 35.867188 C 60.207031 36.394531 63.777344 40.535156 63.894531 40.878906 C 61.839844 42.429688 61.039063 43.113281 58.613281 44.433594 C 45.164063 51.78125 25.710938 51.386719 13.0625 42.734375 C 12.476563 42.335938 10.953125 41.246094 10.566406 40.792969 L 14.515625 35.828125 C 14.425781 35.6875 14.050781 35.296875 13.878906 35.195313 C 13.804688 35.492188 13.921875 35.199219 13.738281 35.453125 C 13.6875 35.523438 13.652344 35.566406 13.597656 35.632813 L 9.367188 40.917969 C 9.5 41.09375 9.84375 41.339844 10.003906 41.46875 L 11.976563 42.992188 C 14.535156 44.90625 18.226563 46.707031 21.210938 47.761719 C 26.117188 49.492188 31.585938 50.46875 37.21875 50.46875 C 45.527344 50.460938 52.710938 48.628906 59.652344 44.839844 C 60.710938 44.261719 62.210938 43.253906 63.179688 42.507813 L 65.09375 40.996094 C 64.957031 40.671875 64.234375 39.871094 63.949219 39.519531 C 63.570313 39.046875 63.207031 38.59375 62.820313 38.101563 C 62.554688 37.769531 60.707031 35.554688 60.558594 35.257813 "/>
<path style=" stroke:none;fill-rule:evenodd;fill:rgb(99.198914%,72.499084%,7.499695%);fill-opacity:1;" d="M 37.234375 8.550781 C 52.539063 8.550781 64.945313 16.328125 64.945313 25.925781 C 64.945313 35.519531 52.539063 43.296875 37.234375 43.296875 C 21.929688 43.296875 9.523438 35.519531 9.523438 25.925781 C 9.523438 16.328125 21.929688 8.550781 37.234375 8.550781 "/>
<path style=" stroke:none;fill-rule:evenodd;fill:rgb(92.89856%,10.998535%,14.099121%);fill-opacity:1;" d="M 37.234375 9.8125 C 51.84375 9.8125 63.683594 17.027344 63.683594 25.925781 C 63.683594 34.824219 51.84375 42.035156 37.234375 42.035156 C 22.628906 42.035156 10.785156 34.824219 10.785156 25.925781 C 10.785156 17.027344 22.628906 9.8125 37.234375 9.8125 "/>
<path style=" stroke:none;fill-rule:evenodd;fill:rgb(100%,100%,100%);fill-opacity:1;" d="M 26.210938 25.15625 C 26.214844 25.859375 24.484375 30.800781 23.519531 29.574219 C 22.753906 28.601563 24.550781 26.640625 25.199219 25.980469 C 25.425781 25.746094 25.804688 25.167969 26.210938 25.15625 Z M 33.152344 24.140625 C 33.226563 24.769531 32.382813 27.214844 31.976563 27.851563 C 31.828125 28.082031 31.363281 28.585938 31.023438 28.175781 C 30.429688 27.464844 31.332031 26.289063 31.632813 25.855469 C 31.925781 25.4375 32.699219 24.234375 33.152344 24.140625 Z M 48.945313 24.261719 C 48.835938 24.785156 47.863281 25.855469 47.574219 26.140625 C 47.285156 26.421875 47.0625 26.609375 46.742188 26.902344 C 46.589844 27.046875 46.015625 27.585938 45.734375 27.277344 C 45.367188 26.882813 45.9375 26.34375 46.109375 26.203125 C 46.617188 25.777344 48.496094 24.351563 48.945313 24.261719 Z M 53.980469 25.164063 C 54.128906 24.757813 54.59375 24.011719 54.835938 23.605469 C 55.144531 23.085938 55.429688 22.585938 55.75 22.101563 C 56.183594 21.441406 57.308594 19.636719 58.183594 19.660156 C 58.191406 20.417969 56.78125 22.238281 56.398438 22.746094 C 55.976563 23.308594 54.5625 24.921875 53.980469 25.164063 Z M 43.101563 22.519531 C 43.152344 22.207031 43.519531 21.410156 43.65625 21.085938 C 43.855469 20.613281 44.058594 20.164063 44.273438 19.660156 C 44.402344 19.359375 45.429688 16.960938 45.957031 17.453125 C 46.175781 17.65625 45.535156 18.589844 45.402344 18.8125 Z M 38.828125 27.691406 C 38.542969 26.953125 39.464844 25.058594 39.78125 24.460938 C 40.085938 23.890625 40.609375 23.449219 40.238281 22.96875 C 39.867188 22.484375 38.410156 21.851563 37.488281 23.433594 L 35.902344 26.175781 C 35.761719 26.414063 35.640625 26.621094 35.5 26.855469 C 35.332031 27.136719 35.253906 27.410156 34.933594 27.445313 C 34.765625 27 35.144531 26.339844 35.320313 25.917969 C 35.527344 25.417969 35.699219 24.960938 35.894531 24.460938 L 38.273438 18.5625 C 38.484375 18.050781 39.488281 16.007813 39.269531 15.558594 C 38.925781 14.859375 37.265625 15.628906 36.953125 15.964844 C 36.621094 16.320313 35.175781 19.703125 34.851563 20.417969 C 34.664063 20.835938 33.992188 22.441406 33.792969 22.671875 C 32.953125 22.21875 32.542969 22.121094 31.671875 22.714844 C 31.132813 23.078125 30.652344 23.636719 30.25 24.15625 C 29.851563 24.667969 29.484375 25.25 29.148438 25.851563 C 29.019531 26.082031 28.277344 27.617188 28.144531 27.683594 C 27.789063 26.246094 29.953125 24.824219 29.03125 23.417969 C 28.65625 22.847656 27.816406 22.644531 26.945313 22.824219 C 25.554688 23.113281 23.253906 25.652344 22.339844 26.554688 C 21.867188 27.023438 21.46875 27.453125 21.042969 27.992188 C 20.882813 28.191406 20.542969 28.574219 20.617188 28.964844 C 20.699219 29.410156 21.167969 29.363281 21.386719 29.648438 C 20.796875 30.792969 22.175781 32.523438 23.21875 32.449219 C 24.3125 32.375 25.21875 30.855469 25.835938 30.1875 C 26.441406 30.503906 26.585938 31.398438 28.757813 29.726563 L 28.980469 29.578125 C 29.058594 31.164063 30.75 31.585938 32.070313 30.238281 L 32.964844 29.289063 L 33.101563 29.410156 C 33.148438 29.457031 33.179688 29.496094 33.222656 29.542969 C 34.160156 30.535156 35.339844 29.5625 35.957031 29.242188 C 36.3125 29.570313 36.730469 30.585938 38.328125 29.808594 C 39.433594 29.273438 39.910156 28.527344 40.285156 28.332031 C 40.652344 28.644531 40.984375 29.070313 41.746094 29.105469 C 42.449219 29.140625 43.019531 28.800781 43.457031 28.550781 C 43.574219 29.46875 44.378906 29.777344 45.378906 29.6875 C 46.792969 29.5625 46.859375 28.671875 47.410156 28.65625 C 47.71875 29.132813 47.296875 29.941406 48.179688 30.117188 C 48.953125 30.269531 49.777344 29.785156 50.109375 29.835938 C 50.84375 37.351563 57.179688 36.269531 57.523438 35.535156 C 57.796875 34.949219 56.015625 34.464844 55.679688 34.265625 C 54.164063 33.371094 51.929688 30.265625 53.558594 28.117188 C 54.851563 26.410156 58.132813 24.414063 59.441406 21.335938 C 60.019531 19.980469 60.332031 16.625 58.023438 17.816406 C 55.714844 19.011719 53.585938 22.5 52.199219 24.589844 C 51.726563 25.292969 50.800781 26.78125 50.414063 27.582031 C 50.261719 27.90625 50.058594 28.484375 49.703125 28.339844 C 48.851563 27.792969 51.441406 24.578125 51.960938 23.910156 C 52.457031 23.28125 52.070313 23.082031 51.671875 22.675781 C 51.507813 22.511719 51.378906 22.289063 51.089844 22.238281 C 50.695313 22.171875 50.574219 22.355469 50.320313 22.410156 C 49.800781 22.519531 49.199219 21.75 46.589844 23.570313 C 45.820313 24.105469 45.046875 24.738281 44.429688 25.351563 L 43.371094 26.265625 C 42.601563 26.878906 42.710938 26.054688 42.953125 25.464844 C 43.292969 24.632813 44.03125 23.800781 44.535156 23.105469 C 45.097656 22.328125 45.59375 21.503906 46.113281 20.675781 C 46.628906 19.851563 48.730469 16.382813 48.792969 15.410156 C 48.890625 13.890625 45.832031 14.492188 44.039063 16.9375 C 42.875 18.523438 42.292969 20.3125 41.542969 22.398438 C 41.390625 22.816406 39.429688 27.558594 38.828125 27.691406 "/>
<path style=" stroke:none;fill-rule:evenodd;fill:rgb(100%,100%,100%);fill-opacity:1;" d="M 18.300781 28.9375 C 18.101563 26.671875 17.929688 22.175781 16.511719 20.414063 C 15.4375 19.078125 14.46875 21.425781 14.632813 22.855469 C 14.714844 23.59375 14.957031 24.21875 15.140625 24.894531 C 15.332031 25.597656 15.492188 26.28125 15.628906 27.027344 C 15.902344 28.550781 16.066406 30.117188 16.128906 31.707031 C 16.164063 32.59375 16.027344 33.277344 16.988281 33.378906 C 17.324219 33.417969 17.871094 33.351563 18.203125 33.300781 C 18.613281 33.242188 18.8125 33.054688 19.007813 32.769531 C 19.332031 32.308594 20.019531 29.664063 20.277344 28.890625 C 21.5625 25.039063 22.992188 21.605469 25.132813 18.277344 C 25.554688 17.625 27.328125 15.355469 27.339844 15.328125 C 28.085938 13.835938 25.65625 12.363281 22.378906 17.617188 C 20.824219 20.105469 20.277344 22.160156 19.425781 24.972656 L 18.300781 28.9375 "/>
<path style=" stroke:none;fill-rule:nonzero;fill:rgb(13.699341%,12.199402%,12.5%);fill-opacity:1;" d="M 63.351563 12.375 C 63.734375 12.375 64.109375 12.472656 64.476563 12.671875 C 64.839844 12.867188 65.125 13.148438 65.328125 13.515625 C 65.53125 13.882813 65.636719 14.265625 65.636719 14.660156 C 65.636719 15.054688 65.535156 15.433594 65.335938 15.796875 C 65.132813 16.160156 64.851563 16.445313 64.488281 16.644531 C 64.125 16.84375 63.746094 16.945313 63.351563 16.945313 C 62.957031 16.945313 62.578125 16.84375 62.214844 16.644531 C 61.851563 16.445313 61.570313 16.160156 61.367188 15.796875 C 61.164063 15.433594 61.066406 15.054688 61.066406 14.660156 C 61.066406 14.265625 61.167969 13.882813 61.371094 13.515625 C 61.578125 13.148438 61.863281 12.867188 62.226563 12.671875 C 62.59375 12.472656 62.96875 12.375 63.351563 12.375 Z M 63.351563 12.753906 C 63.03125 12.753906 62.71875 12.835938 62.414063 13 C 62.109375 13.164063 61.871094 13.402344 61.699219 13.707031 C 61.527344 14.011719 61.445313 14.332031 61.445313 14.660156 C 61.445313 14.992188 61.527344 15.304688 61.695313 15.605469 C 61.863281 15.910156 62.101563 16.144531 62.402344 16.3125 C 62.707031 16.484375 63.023438 16.566406 63.351563 16.566406 C 63.679688 16.566406 63.996094 16.484375 64.300781 16.3125 C 64.601563 16.144531 64.839844 15.910156 65.007813 15.605469 C 65.171875 15.304688 65.257813 14.992188 65.257813 14.660156 C 65.257813 14.332031 65.171875 14.011719 65 13.707031 C 64.832031 13.402344 64.59375 13.164063 64.289063 13 C 63.984375 12.835938 63.671875 12.753906 63.351563 12.753906 Z M 62.347656 15.921875 L 62.347656 13.46875 L 63.195313 13.46875 C 63.484375 13.46875 63.691406 13.488281 63.820313 13.535156 C 63.953125 13.582031 64.054688 13.65625 64.132813 13.773438 C 64.207031 13.886719 64.246094 14.003906 64.246094 14.132813 C 64.246094 14.308594 64.179688 14.46875 64.054688 14.601563 C 63.925781 14.734375 63.753906 14.808594 63.539063 14.824219 C 63.628906 14.859375 63.699219 14.902344 63.75 14.953125 C 63.847656 15.050781 63.96875 15.214844 64.113281 15.441406 L 64.414063 15.921875 L 63.929688 15.921875 L 63.710938 15.535156 C 63.539063 15.230469 63.402344 15.039063 63.296875 14.964844 C 63.222656 14.90625 63.117188 14.878906 62.980469 14.882813 L 62.746094 14.882813 L 62.746094 15.921875 Z M 62.746094 14.539063 L 63.226563 14.539063 C 63.457031 14.539063 63.613281 14.507813 63.699219 14.4375 C 63.78125 14.367188 63.824219 14.277344 63.824219 14.167969 C 63.824219 14.09375 63.804688 14.027344 63.765625 13.972656 C 63.722656 13.914063 63.667969 13.871094 63.597656 13.84375 C 63.523438 13.816406 63.390625 13.800781 63.195313 13.800781 L 62.746094 13.800781 L 62.746094 14.539063 "/>
<path style=" stroke:none;fill-rule:nonzero;fill:rgb(100%,100%,100%);fill-opacity:1;" d="M 24.921875 35.269531 L 25.527344 35.476563 L 24.484375 38.507813 L 23.878906 38.300781 Z M 28.625 36.421875 L 28.472656 36.984375 C 28.402344 36.941406 28.324219 36.90625 28.246094 36.886719 C 28.125 36.851563 28 36.851563 27.867188 36.878906 C 27.734375 36.90625 27.609375 36.976563 27.496094 37.09375 C 27.378906 37.210938 27.289063 37.382813 27.226563 37.613281 C 27.175781 37.78125 27.160156 37.953125 27.171875 38.136719 C 27.1875 38.316406 27.238281 38.472656 27.320313 38.605469 C 27.40625 38.738281 27.527344 38.828125 27.679688 38.875 C 27.746094 38.886719 27.835938 38.894531 27.949219 38.898438 L 27.796875 39.472656 C 27.679688 39.476563 27.558594 39.464844 27.4375 39.429688 C 27.207031 39.367188 27.011719 39.242188 26.84375 39.050781 C 26.679688 38.863281 26.570313 38.628906 26.515625 38.347656 C 26.457031 38.070313 26.472656 37.777344 26.554688 37.46875 C 26.628906 37.203125 26.753906 36.964844 26.933594 36.757813 C 27.117188 36.550781 27.328125 36.402344 27.570313 36.3125 C 27.8125 36.222656 28.046875 36.210938 28.285156 36.273438 C 28.402344 36.308594 28.519531 36.355469 28.625 36.421875 Z M 30.015625 36.699219 L 31.273438 36.921875 L 31.175781 37.503906 L 30.539063 37.394531 L 30.421875 38.082031 L 30.976563 38.175781 L 30.875 38.765625 L 30.320313 38.667969 L 30.195313 39.378906 L 30.832031 39.488281 L 30.726563 40.082031 L 29.464844 39.859375 Z M 36.300781 37.390625 L 36.277344 37.972656 C 36.199219 37.949219 36.117188 37.933594 36.035156 37.929688 C 35.910156 37.921875 35.789063 37.949219 35.664063 38.003906 C 35.542969 38.058594 35.4375 38.15625 35.347656 38.296875 C 35.261719 38.433594 35.210938 38.625 35.199219 38.863281 C 35.1875 39.035156 35.210938 39.207031 35.261719 39.382813 C 35.316406 39.554688 35.402344 39.699219 35.511719 39.8125 C 35.621094 39.921875 35.757813 39.980469 35.921875 39.992188 C 35.988281 39.988281 36.078125 39.976563 36.191406 39.957031 L 36.164063 40.550781 C 36.050781 40.578125 35.933594 40.59375 35.804688 40.585938 C 35.566406 40.578125 35.347656 40.496094 35.144531 40.347656 C 34.945313 40.203125 34.785156 39.996094 34.667969 39.738281 C 34.550781 39.476563 34.5 39.1875 34.515625 38.867188 C 34.527344 38.589844 34.597656 38.332031 34.730469 38.089844 C 34.859375 37.847656 35.035156 37.65625 35.25 37.519531 C 35.464844 37.378906 35.695313 37.3125 35.9375 37.324219 C 36.0625 37.332031 36.183594 37.351563 36.300781 37.390625 Z M 37.722656 37.402344 L 38.4375 37.367188 C 39.113281 37.335938 39.476563 37.601563 39.53125 38.171875 C 39.550781 38.59375 39.410156 38.898438 39.113281 39.082031 L 39.738281 40.515625 L 39.078125 40.546875 L 38.453125 39.09375 L 38.441406 39.09375 L 38.511719 40.574219 L 37.875 40.605469 Z M 38.382813 37.894531 L 38.425781 38.738281 C 38.464844 38.738281 38.496094 38.738281 38.519531 38.742188 C 38.808594 38.71875 38.9375 38.546875 38.90625 38.226563 C 38.894531 37.988281 38.753906 37.875 38.488281 37.890625 Z M 41.167969 37.183594 L 42.441406 37.046875 L 42.503906 37.632813 L 41.867188 37.703125 L 41.941406 38.394531 L 42.503906 38.335938 L 42.570313 38.925781 L 42.007813 38.988281 L 42.085938 39.707031 L 42.726563 39.636719 L 42.789063 40.230469 L 41.515625 40.371094 Z M 44.441406 36.699219 L 45.089844 36.5625 L 46.5 39.539063 L 45.84375 39.679688 L 45.613281 39.175781 L 44.988281 39.304688 L 44.980469 39.859375 L 44.367188 39.988281 Z M 45.421875 38.699219 L 44.917969 37.433594 L 44.910156 37.4375 L 44.980469 38.789063 Z M 47.296875 36.011719 L 48.089844 35.769531 L 48.941406 37.484375 L 48.949219 37.484375 L 48.640625 35.597656 L 49.457031 35.34375 L 50.71875 38.308594 L 50.101563 38.5 C 50.054688 38.378906 49.996094 38.226563 49.929688 38.046875 C 49.859375 37.867188 49.789063 37.6875 49.71875 37.507813 C 49.652344 37.328125 49.574219 37.117188 49.480469 36.878906 C 49.386719 36.640625 49.316406 36.460938 49.269531 36.34375 L 49.261719 36.34375 C 49.300781 36.539063 49.335938 36.742188 49.371094 36.949219 C 49.402344 37.15625 49.433594 37.363281 49.457031 37.574219 C 49.480469 37.78125 49.5 37.949219 49.515625 38.074219 C 49.527344 38.203125 49.550781 38.398438 49.585938 38.660156 L 49.117188 38.804688 C 49.070313 38.710938 48.953125 38.492188 48.769531 38.152344 C 48.585938 37.8125 48.445313 37.550781 48.347656 37.363281 C 48.25 37.179688 48.152344 36.984375 48.054688 36.78125 L 48.039063 36.722656 L 48.03125 36.726563 L 48.628906 38.957031 L 47.972656 39.160156 L 47.296875 36.011719 "/>
<path style=" stroke:none;fill-rule:nonzero;fill:rgb(100%,100%,100%);fill-opacity:1;" d="M 14.71875 37.386719 L 15.667969 37.992188 C 16.003906 38.207031 16.214844 38.457031 16.308594 38.742188 C 16.402344 39.03125 16.359375 39.339844 16.179688 39.660156 C 15.972656 40.03125 15.695313 40.238281 15.351563 40.28125 C 15.003906 40.324219 14.664063 40.242188 14.332031 40.039063 C 14.269531 39.980469 14.214844 39.9375 14.167969 39.910156 L 13.253906 41.34375 L 12.5 40.863281 Z M 15.109375 38.433594 L 14.527344 39.351563 C 14.714844 39.480469 14.878906 39.539063 15.015625 39.523438 C 15.152344 39.503906 15.273438 39.40625 15.386719 39.230469 C 15.574219 38.9375 15.515625 38.691406 15.210938 38.5 Z M 17.632813 39.28125 L 18.40625 39.699219 L 17.035156 42.246094 C 16.855469 42.574219 16.898438 42.804688 17.15625 42.945313 C 17.324219 43.039063 17.453125 43.054688 17.550781 42.988281 C 17.648438 42.921875 17.742188 42.800781 17.839844 42.621094 L 19.1875 40.121094 L 19.976563 40.542969 L 18.542969 43.199219 C 18.371094 43.519531 18.15625 43.722656 17.894531 43.816406 C 17.636719 43.910156 17.277344 43.835938 16.816406 43.601563 C 16.464844 43.421875 16.226563 43.191406 16.09375 42.914063 C 15.960938 42.632813 16 42.304688 16.207031 41.921875 Z M 20.925781 40.972656 L 21.855469 41.34375 C 22.738281 41.699219 23.058594 42.222656 22.820313 42.914063 C 22.617188 43.417969 22.277344 43.695313 21.796875 43.738281 L 21.820313 45.773438 L 20.957031 45.429688 L 20.941406 43.371094 L 20.929688 43.367188 L 20.222656 45.132813 L 19.394531 44.800781 Z M 21.507813 41.929688 L 21.101563 42.941406 C 21.152344 42.960938 21.191406 42.980469 21.21875 43 C 21.597656 43.140625 21.859375 43.015625 21.992188 42.621094 C 22.109375 42.335938 21.988281 42.121094 21.640625 41.984375 Z M 24.300781 42.273438 L 26.027344 42.757813 L 25.820313 43.492188 L 24.953125 43.246094 L 24.710938 44.109375 L 25.472656 44.324219 L 25.265625 45.0625 L 24.503906 44.847656 L 24.25 45.742188 L 25.121094 45.988281 L 24.914063 46.730469 L 23.183594 46.242188 Z M 28.183594 43.308594 L 29.121094 43.476563 L 29.304688 45.511719 C 29.320313 45.621094 29.328125 45.699219 29.332031 45.753906 C 29.332031 45.808594 29.335938 45.882813 29.335938 45.976563 C 29.335938 46.070313 29.339844 46.160156 29.34375 46.234375 L 29.351563 46.238281 C 29.375 46.179688 29.402344 46.109375 29.429688 46.027344 C 29.460938 45.945313 29.492188 45.855469 29.53125 45.757813 C 29.574219 45.65625 29.601563 45.589844 29.621094 45.550781 L 30.480469 43.714844 L 31.40625 43.878906 L 29.460938 47.722656 L 28.75 47.597656 Z M 32.257813 43.96875 L 34.046875 44.105469 L 33.988281 44.867188 L 33.089844 44.796875 L 33.023438 45.691406 L 33.8125 45.753906 L 33.753906 46.515625 L 32.964844 46.453125 L 32.890625 47.378906 L 33.792969 47.449219 L 33.734375 48.21875 L 31.941406 48.082031 Z M 38.097656 46.066406 L 38.089844 46.527344 C 38.085938 46.816406 38.042969 47.101563 37.964844 47.378906 C 37.886719 47.652344 37.738281 47.894531 37.523438 48.097656 C 37.308594 48.304688 37.007813 48.40625 36.628906 48.40625 C 36.085938 48.398438 35.6875 48.1875 35.429688 47.769531 C 35.167969 47.351563 35.039063 46.859375 35.042969 46.292969 C 35.050781 45.746094 35.175781 45.25 35.417969 44.804688 C 35.65625 44.355469 36.070313 44.136719 36.652344 44.148438 C 36.886719 44.152344 37.09375 44.195313 37.265625 44.28125 C 37.4375 44.367188 37.585938 44.480469 37.703125 44.625 C 37.824219 44.769531 37.921875 44.945313 38 45.144531 L 37.121094 45.441406 C 37.105469 45.261719 37.058594 45.128906 36.976563 45.035156 C 36.890625 44.945313 36.789063 44.898438 36.664063 44.898438 C 36.574219 44.898438 36.480469 44.925781 36.390625 44.988281 C 36.300781 45.050781 36.234375 45.132813 36.195313 45.234375 C 36.082031 45.5 36.015625 45.828125 35.992188 46.222656 C 36 46.25 36.003906 46.292969 36 46.351563 C 35.996094 46.605469 36.03125 46.878906 36.101563 47.175781 C 36.167969 47.472656 36.347656 47.628906 36.628906 47.644531 C 36.816406 47.65625 36.957031 47.589844 37.054688 47.441406 C 37.148438 47.289063 37.199219 47.085938 37.203125 46.820313 L 36.628906 46.8125 L 36.644531 46.039063 Z M 39.113281 44.191406 L 40.902344 44.054688 L 40.960938 44.8125 L 40.0625 44.878906 L 40.132813 45.777344 L 40.921875 45.714844 L 40.980469 46.476563 L 40.191406 46.539063 L 40.265625 47.464844 L 41.167969 47.394531 L 41.226563 48.164063 L 39.433594 48.300781 Z M 41.894531 43.972656 L 44.148438 43.667969 L 44.25 44.421875 L 43.558594 44.515625 L 44.011719 47.847656 L 43.136719 47.964844 L 42.6875 44.632813 L 41.996094 44.726563 Z M 45.621094 43.386719 L 46.53125 43.203125 L 48.40625 47.035156 L 47.484375 47.21875 L 47.175781 46.574219 L 46.300781 46.75 L 46.273438 47.464844 L 45.410156 47.640625 Z M 46.921875 45.960938 L 46.261719 44.335938 L 46.25 44.339844 L 46.304688 46.085938 Z M 48.402344 42.75 L 49.355469 42.457031 C 50.265625 42.179688 50.84375 42.382813 51.09375 43.074219 C 51.253906 43.59375 51.160156 44.019531 50.816406 44.355469 L 52.113281 45.921875 L 51.226563 46.195313 L 49.921875 44.605469 L 49.910156 44.609375 L 50.46875 46.429688 L 49.613281 46.695313 Z M 49.453125 43.132813 L 49.773438 44.171875 C 49.828125 44.15625 49.871094 44.144531 49.902344 44.144531 C 50.285156 44.015625 50.40625 43.753906 50.265625 43.363281 C 50.175781 43.070313 49.949219 42.976563 49.589844 43.089844 Z M 51.980469 41.566406 L 52.8125 41.242188 L 54.292969 45.09375 L 53.460938 45.414063 Z M 54.507813 40.496094 L 55.332031 40.070313 L 58.191406 43.230469 L 57.355469 43.664063 L 56.882813 43.128906 L 56.089844 43.539063 L 56.261719 44.234375 L 55.480469 44.640625 Z M 56.472656 42.609375 L 55.386719 41.230469 L 55.375 41.238281 L 55.910156 42.898438 Z M 56.957031 39.261719 L 57.652344 38.777344 L 59.988281 40.183594 L 59.992188 40.167969 C 59.910156 40.105469 59.808594 39.996094 59.683594 39.847656 L 58.523438 38.171875 L 59.246094 37.667969 L 61.597656 41.058594 L 60.914063 41.535156 L 58.582031 40.121094 L 58.578125 40.136719 C 58.75 40.328125 58.878906 40.476563 58.960938 40.582031 L 60.039063 42.136719 L 59.308594 42.648438 L 56.957031 39.261719 "/>
</g>
</svg>
